<svg id="Layer_10" data-name="Layer 10" xmlns="http://www.w3.org/2000/svg" viewBox="0 0 140 120"><defs><style>.cls-1{fill:#212121;}</style></defs><title>ai2</title><path class="cls-1" d="M69.74,103.48c-14.08,0-28.16,0-42.24,0-1.74,0-2.33-.35-2.32-2.22q.09-41.32,0-82.63c0-1.62.35-2.19,2.1-2.19q42.72.09,85.46,0c1.51,0,2.07.33,2.07,2q-.07,41.57,0,83.11c0,2-.94,1.93-2.35,1.93Q91.11,103.46,69.74,103.48Zm.2-83.09c-12.79,0-25.59.05-38.38,0-2,0-2.51.58-2.5,2.54q.09,37.11,0,74.2c0,1.94.41,2.57,2.48,2.56q38.51-.11,77,0c2,0,2.37-.58,2.37-2.42q-.09-37.23,0-74.44c0-2.12-.7-2.45-2.6-2.44C95.53,20.43,82.74,20.39,69.94,20.39Z"/><path class="cls-1" d="M68.51,40.08,79.93,80.93H71.69L68.77,70.14H57.83L55,80.93h-8L58.63,40.08ZM59,64.2h8.71l-2.44-9.3c-.64-2.55-1.33-5.84-1.86-8.34H63.2c-.53,2.55-1.22,5.9-1.81,8.29Z"/><path class="cls-1" d="M88.69,47.47a4.2,4.2,0,1,1,4.25-4.2A4,4,0,0,1,88.69,47.47Zm4,3.87V80.93H84.81V51.34Z"/></svg>