<svg id="Layer_14" data-name="Layer 14" xmlns="http://www.w3.org/2000/svg" viewBox="0 0 140 120"><defs><style>.cls-1{fill:#212121;}.cls-2{fill:#eaecee;}</style></defs><title>css2</title><path class="cls-1" d="M68.7,23.67c-1.48-1.61-2.91-3.26-4.46-4.81-1-1-.55-2.17-.59-3.29,0-.41.42-.35.71-.35,3.2,0,6.4,0,9.6,0,.61,0,.8.23.84.84C75,18.6,75,18.6,72.45,18.6h-2.9c1.55,1.69,2.76,3.19,4.17,4.48a4,4,0,0,1,1.21,3.61c0,.57-.26.73-.8.73-3.24,0-6.48,0-9.73,0-.63,0-.78-.25-.81-.84C63.45,24,63.43,24,66,24h2.58Z"/><path class="cls-1" d="M82,23.66c-1.44-1.58-2.82-3.23-4.36-4.71-1-1-.7-2.14-.74-3.26,0-.49.41-.48.76-.48,3.21,0,6.41,0,9.62,0,.64,0,.77.28.8.86.14,2.54.16,2.54-2.37,2.54H83.29c-.19.52.21.68.42.91,1.3,1.44,2.63,2.87,4,4.3a2.1,2.1,0,0,1,.63,1c.45,2.14.06,2.64-2.12,2.64-2.69,0-5.37,0-8.06,0-1,0-1.27-.25-1.24-1.24C76.92,24,76.86,24,79,24h2.84Z"/><path class="cls-1" d="M51.72,21.26c0-1.64,0-3.29,0-4.93,0-.8.15-1.16,1.06-1.14,2.6.06,5.2.05,7.79,0,.84,0,1,.32,1,1.07,0,2.5.06,2.47-2.4,2.51-1.06,0-2.43-.48-3.11.23s-.16,2-.17,3c0,1.84,0,1.84,1.83,1.84H59c2.76,0,2.74,0,2.55,2.75,0,.6-.23.83-.84.82-2.73,0-5.45,0-8.18,0-.76,0-.82-.4-.82-1C51.73,24.72,51.72,23,51.72,21.26Z"/><path class="cls-2" d="M69.89,90.6q-7.73-2.19-15.45-4.35a1,1,0,0,1-.8-1c-.31-3.61-.62-7.23-1-10.84-.06-.69.2-.91.87-.9,2.08,0,4.15,0,6.23,0,.68,0,.9.3.94.93.09,1.46.24,2.92.34,4.39a1.21,1.21,0,0,0,1,1.31c2.43.6,4.85,1.26,7.27,1.9l.59.31q0,4.06,0,8.13Z"/><path class="cls-2" d="M50.16,45.65h20c0,2.58,0,5.17,0,7.75-5.76,0-11.52,0-17.28.05-1.27,0-2.17-.11-2.22-1.61Z"/><path class="cls-1" d="M100.08,32.83h-30q-15.27,0-30.54,0c-1,0-1.36.14-1.23,1.28.39,3.18.62,6.37.9,9.56q1.09,12.56,2.19,25.09c.82,9.22,1.68,18.44,2.48,27.66.08.92.33,1.36,1.25,1.61q12,3.28,24.05,6.64a2.46,2.46,0,0,0,1.4.08q12.32-3.43,24.66-6.83a1.09,1.09,0,0,0,.93-1.17c.08-1.42.21-2.85.34-4.27q1.51-17,3.06-34c.72-8,1.41-15.95,2.14-23.92C101.83,32.83,101.86,32.83,100.08,32.83ZM54.44,86.25a1,1,0,0,1-.8-1c-.31-3.61-.62-7.23-1-10.84-.06-.69.2-.91.87-.9,2.08,0,4.15,0,6.23,0,.68,0,.9.3.94.93.09,1.46.24,2.92.34,4.39a1.21,1.21,0,0,0,1,1.31c2.43.6,5.44,1.57,7.86,2.21h0l8-2.18c.55-.15,1-.26,1.1-1q.31-4.2.76-8.38c.1-1-.2-1.27-1.19-1.25-2.8,0-5.61,0-8.42,0l-8.83,0-.75-7.72,9.57-.06c3.08,0,6.15-.07,9.23,0,1,0,1.29-.35,1.36-1.25.14-2,.3-4,.53-6.07.1-1-.46-.92-1.11-.92l-10-.05c-5.76,0-11.52,0-17.28.05-1.27,0-2.17-.11-2.22-1.61l-.48-6.19h20L89,45.58c1.45,0,.81,1,.78,1.63a.4.4,0,0,1-.08.52c-.39,4.69-.76,9.38-1.17,14.07-.47,5.46-1,10.92-1.46,16.38-.2,2.28-.41,4.56-.6,6.84a1.23,1.23,0,0,1-1,1.27q-7.4,2-14.77,4l-.22.08-.56.08h0C64.73,89,59.6,87.68,54.44,86.25Z"/><path class="cls-2" d="M60.57,61.77l9.57-.06c0,2.59,0,5.17,0,7.76l-8.83,0Z"/><path class="cls-2" d="M89.68,47.73l.09-.52A.41.41,0,0,1,89.68,47.73Z"/><path class="cls-2" d="M70.44,90.39a.28.28,0,0,1,.22-.08Z"/></svg>