<svg id="Layer_12" data-name="Layer 12" xmlns="http://www.w3.org/2000/svg" viewBox="0 0 140 120"><defs><style>.cls-1{fill:#212121;}.cls-2{fill:#ede9e8;}</style></defs><title>html2</title><path class="cls-1" d="M79.84,22.08l-1.61,2.49c-.83,1.27-.83,1.27-1.69-.05a12,12,0,0,0-1.92-2.46c0,1.37-.06,2.75,0,4.12,0,.95-.19,1.28-1.2,1.26-2.83,0-2.83,0-2.83-2.86s0-5.53,0-8.3c0-.77.19-1,1-1,3.22,0,3.22-.08,4.92,2.71.92,1.51.92,1.51,1.82,0a1,1,0,0,0,.13-.22c.83-2.69,3-2.68,5.17-2.5.52,0,.65.26.65.72q0,5.38,0,10.77s0,.1,0,.13c-.92,1.23-2.21.26-3.29.53-.57.14-.88-.13-.87-.78,0-1.49,0-3,0-4.49Z"/><path class="cls-1" d="M56,21.37c0,1.68-.05,3.37,0,5.06,0,.81-.24,1-1,1-3,0-3,0-3.06-3,0-.84-.24-1.1-1.1-1.1-2.52,0-2.61,0-2.49,2.51.07,1.39-.41,1.65-1.67,1.61-2.5-.1-2.5,0-2.5-2.55,0-2.86,0-5.71,0-8.56,0-.85.23-1.1,1.08-1.1,3,0,3-.05,3.06,3,0,.77.2,1,1,1.05,2.61,0,2.67.06,2.58-2.57,0-1.18.28-1.54,1.49-1.5,2.63.09,2.64,0,2.64,2.63Z"/><path class="cls-1" d="M63.32,15.26c1.56,0,3.12,0,4.67,0,.64,0,1,.15.92.86a.57.57,0,0,0,0,.13c0,1,.28,2.09-.14,2.8s-1.74.28-2.65.3-.8.4-.8,1c0,2,0,4.07,0,6.1,0,.81-.25,1-1,1-3.1,0-3.1.07-3.1-3,0-1.38,0-2.77,0-4.15,0-.75-.23-.94-1-.95s-2.12.45-2.42-.24c-.42-.95-.15-2.2-.16-3.32,0-.6.45-.53.83-.53Z"/><path class="cls-1" d="M86.25,21.25c0-1.64,0-3.29,0-4.93,0-.88.29-1.08,1.12-1.08,3,0,3,0,3,3,0,1.39,0,2.78,0,4.16,0,.72.2,1,1,1,1.17-.06,2.34,0,3.51,0,.26,0,.62-.11.77,0,1.06.92.26,2.14.48,3.21.11.56-.11.88-.77.88q-4.09,0-8.19,0c-.76,0-.82-.39-.81-1C86.27,24.72,86.25,23,86.25,21.25Z"/><path class="cls-2" d="M50.41,46.05l10,.08,9.57.07,0,7.84a.37.37,0,0,1,0,.18c-3.41,0-6.83,0-10.24-.07-.61,0-.84.19-.77.83.21,2.19.38,4.39.58,6.58,0,.27.07.52.4.56,2.62.29,5.24.05,7.86.13l2.19.07v7.8a1.36,1.36,0,0,0,0,.2c-5.27,0-10.54,0-15.82-.08-2.12,0-1.89.33-2.09-1.9q-1-10.7-2-21.4a.13.13,0,0,0,0-.21C50.09,46.47,50.14,46.19,50.41,46.05Z"/><path class="cls-2" d="M69.93,91.21,56.24,87.38c-2.55-.72-2.56-.73-2.81-3.33-.3-3-.54-6-.85-9-.08-.71.16-.91.83-.91,2.08,0,4.16,0,6.24,0,.73,0,1,.28,1.05,1,.1,1.51.27,3,.36,4.53a1,1,0,0,0,.88,1.08c2.47.63,4.94,1.28,7.41,1.92l.58.29,0,8.17A.41.41,0,0,1,69.93,91.21Z"/><path class="cls-1" d="M50,46.73a.13.13,0,0,1,0,.21S50,46.85,50,46.8,50,46.76,50,46.73Z"/><path class="cls-1" d="M100.33,32.87c-10.09.05-20.19,0-30.28,0s-20.36,0-30.54,0c-1,0-1.32.21-1.21,1.3.53,5.08,1,10.16,1.41,15.25Q41.81,73,43.89,96.62A1.34,1.34,0,0,0,45.05,98q12.09,3.3,24.16,6.68a2.62,2.62,0,0,0,1.52,0Q82.81,101.35,94.89,98c.94-.25,1.19-.69,1.27-1.6.43-5.35.93-10.69,1.4-16q2.06-23,4.14-46C101.8,33.2,101.57,32.86,100.33,32.87ZM56.24,87.38c-2.55-.72-2.56-.73-2.81-3.33-.3-3-.54-6-.85-9-.08-.71.16-.91.83-.91,2.08,0,4.16,0,6.24,0,.73,0,1,.28,1.05,1,.1,1.51.27,3,.36,4.53a1,1,0,0,0,.88,1.08c2.47.63,5.52,1.57,8,2.21h0c2.62-.72,5.24-1.46,7.87-2.13a1.26,1.26,0,0,0,1.14-1.29c.21-2.76.44-5.52.72-8.27.09-.87-.3-1-1-1-2.89,0-5.79,0-8.69-.07h0c-5.27,0-10.56.16-15.84.12-2.12,0-1.89.33-2.09-1.9q-1-10.7-2-21.4S50,46.85,50,46.8s0,0,0-.07c.08-.26.13-.54.4-.68l10,.08,9.57.07c3.92,0,7.85-.06,11.78-.07,2.42,0,4.84,0,7.26,0,.57,0,1,0,.92.82-.24,2.1-.44,4.2-.65,6.3a1.43,1.43,0,0,1,0,.22s0,.06-.07.09c.05.47-.23.59-.64.59-6.22-.06-12.45.14-18.67-.1h0c-3.41,0-6.82.15-10.23.11-.61,0-.84.19-.77.83.21,2.19.38,4.39.58,6.58,0,.27.07.52.4.56,2.62.29,5.24.05,7.86.13l2.19.07c5.88,0,11.77,0,17.66-.09,1,0,.86.6.8,1.21q-.7,7.95-1.42,15.9c-.19,2.15-.41,4.31-.58,6.46a1,1,0,0,1-.87,1.08c-4.93,1.32-9.86,2.67-14.78,4l-.28.1-.56.06s0,0,0,0C65.34,89.77,60.8,88.66,56.24,87.38Z"/><path class="cls-1" d="M89.21,53.55l0-.31a1.43,1.43,0,0,1,0,.22S89.23,53.52,89.21,53.55Z"/><path class="cls-1" d="M70.46,91l.28-.1Z"/></svg>