<svg id="Layer_13" data-name="Layer 13" xmlns="http://www.w3.org/2000/svg" viewBox="0 0 140 120"><defs><style>.cls-1{fill:#212121;}.cls-2{fill:#ececeb;}</style></defs><title>js2</title><path class="cls-1" d="M75.61,24c-1.83-2-3.36-3.69-4.92-5.36-.89-.94-.39-2-.41-3.08,0-.35.46-.29.75-.29H80.5c.58,0,.83.13.88.78.17,2.61.19,2.61-2.43,2.61H76.18c1.66,1.79,3,3.45,4.57,4.9,1.09,1,.78,2.19.82,3.35,0,.53-.43.45-.75.45H71c-.54,0-.73-.16-.77-.73C70,24,70,24,72.59,24Z"/><path class="cls-2" d="M69.9,41.16l.26.11q0,4.09,0,8.19l-.26.14-6.75.06c-.53,0-.77.22-.82.77q-.48,5.43-1,10.85c-.06.64.19.84.8.83l7.8-.06,0,.11V70l0,.17-15.71-.07c-1.72,0-1.73.23-1.55-1.65q1.16-12,2.17-24c.28-3.24.24-3.24,3.51-3.25C62.2,41.19,66.05,41.17,69.9,41.16Z"/><path class="cls-2" d="M69.91,91.06c-5.13-1.41-10.26-2.83-15.4-4.21a1.17,1.17,0,0,1-1-1.25c-.29-3.49-.62-7-1-10.46-.07-.75,0-1.12.92-1.1,2,.06,4.07,0,6.1,0,.71,0,1,.22,1,1,.09,1.51.29,3,.42,4.52,0,.51.1.91.71,1,2.73.67,5.39,1.59,8.16,2.08l0,.2v8.21Z"/><path class="cls-1" d="M100.44,32.87c-10.13.05-20.27,0-30.41,0H39.36c-.61,0-1.2-.11-1.1.9.8,8.74,1.56,17.49,2.34,26.24,1.09,12.15,2.21,24.29,3.27,36.44a1.49,1.49,0,0,0,1.27,1.6q12,3.27,24,6.65a3,3,0,0,0,1.65,0q12-3.34,24-6.64a1.57,1.57,0,0,0,1.33-1.72c.14-2.41.38-4.83.6-7.24q1.36-15,2.73-30.11c.74-8.23,1.42-16.46,2.22-24.68C101.84,33.13,101.62,32.87,100.44,32.87ZM88.35,63.07q-.57,6.33-1.13,12.67c-.29,3.27-.61,6.55-.9,9.82,0,.6-.13,1-.85,1.23-5,1.36-10,2.76-15,4.14a3,3,0,0,1-.52,0h0c-5.13-1.41-10.27-2.72-15.41-4.1a1.17,1.17,0,0,1-1-1.25c-.29-3.49-.62-7-1-10.46-.07-.75,0-1.12.92-1.1,2,.06,4.07,0,6.1,0,.71,0,1,.22,1,1,.09,1.51.29,3,.42,4.52,0,.51.1.91.71,1,2.73.67,5.41,1.79,8.19,2.28,0,.06,0-.07,0,0,2.54-.7,5.08-1.43,7.63-2.08.86-.22,1.33-.55,1.39-1.52.16-2.67.39-5.34.66-8,.1-1-.28-1.16-1.15-1.15-2.86,0-5.71,0-8.56-.07h0c-5.24,0-10.45.12-15.68.1-1.72,0-1.73.23-1.55-1.65q1.16-12,2.17-24c.28-3.24.24-3.24,3.51-3.25,3.86,0,8,.09,11.82.08.09,0-.08,0,0,0,5.28,0,10.55,0,15.82-.07.72,0,1,.27,1,1q.63,7.48,1.32,15c.07.77-.11,1.1-.95,1.08q-3-.08-6,0c-.77,0-1.07-.25-1.12-1-.13-2-.38-4-.49-5.93,0-1-.32-1.35-1.36-1.38-2.77-.06-5.53-.27-8.29-.41h0c-2.25,0-4.76.19-7,.2-.53,0-.77.22-.82.77q-.48,5.43-1,10.85c-.06.64.19.84.8.83,2.6,0,5.18.07,7.77,0h0c5.9,0,11.79,0,17.68-.06C88.34,62.09,88.41,62.47,88.35,63.07Z"/><path class="cls-1" d="M68.28,21.17c0-1.64,0-3.29,0-4.93,0-.88-.28-1.08-1.11-1.08-3,0-3,0-3,3,0,1.39,0,2.77,0,4.16,0,.72-.2,1-1,1-1.16-.06-2.33,0-3.5,0-.26,0-.62-.1-.77,0-1.06.91-.26,2.14-.48,3.21-.12.56.11.88.77.87,2.73,0,5.46,0,8.19,0,.76,0,.82-.4.81-1C68.26,24.63,68.27,22.9,68.28,21.17Z"/></svg>