<svg id="Layer_11" data-name="Layer 11" xmlns="http://www.w3.org/2000/svg" viewBox="0 0 140 120"><defs><style>.cls-1{fill:#212121;}</style></defs><title>ps2</title><path class="cls-1" d="M69.88,103.15c-13.84,0-27.68,0-41.53,0-1.91,0-2.61-.35-2.61-2.46q.12-40.73,0-81.43c0-2.09.66-2.48,2.59-2.48q41.66.09,83.3,0c2.23,0,2.61.69,2.6,2.71q-.09,40.49,0,81c0,2.32-.74,2.74-2.85,2.72C97.57,103.11,83.73,103.15,69.88,103.15ZM29.72,67V85.8c0,4,0,8-.12,12-.05,1.41.6,1.51,1.72,1.51q38.7,0,77.4,0c1.2,0,1.68-.23,1.67-1.56q-.11-21.9-.12-43.79c0-10.63,0-21.26.12-31.89,0-1.25-.51-1.43-1.57-1.41-4.16.07-8.33.08-12.49.11H45.6c-4.81,0-9.62,0-14.42-.11-1.05,0-1.59.16-1.58,1.41.07,10.63.09,21.26.12,31.89Z"/><path class="cls-1" d="M45.19,80.32V40a58,58,0,0,1,10.57-.85c5.15,0,9,1,11.63,3.24a11.8,11.8,0,0,1,3.93,9.14c0,11.2-9.34,13.7-15.45,13.7A15.89,15.89,0,0,1,53,65V80.32ZM53,58.86a13.06,13.06,0,0,0,2.76.22c4.89,0,7.76-2.76,7.76-7.17s-2.77-6.64-7.12-6.64a15.41,15.41,0,0,0-3.4.32Z"/><path class="cls-1" d="M76.31,73.2a15.45,15.45,0,0,0,6.91,2c2.76,0,4.09-1.17,4.09-3s-1-2.76-4.25-4.14c-5.53-2.23-7.54-5.36-7.54-8.6,0-5.31,4.25-9.35,10.83-9.35a16,16,0,0,1,7.33,1.65l-1.49,5.52a12.15,12.15,0,0,0-5.57-1.54C84.23,55.73,83,57,83,58.55s1.12,2.49,4.52,3.93c5,2.07,7.33,4.94,7.33,9,0,5.63-4.25,9.35-11.64,9.35a17.19,17.19,0,0,1-8.33-2Z"/></svg>