<svg id="Layer_8" data-name="Layer 8" xmlns="http://www.w3.org/2000/svg" viewBox="0 0 140 120"><defs><style>.cls-1{fill:#212121;}</style></defs><title>react2</title><circle class="cls-1" cx="70" cy="60" r="8.36"/><path class="cls-1" d="M109,37.49c-3.1-5.36-12.42-6.16-24.29-3C81.54,22.66,76.19,15,70,15S58.46,22.66,55.3,34.54c-11.87-3.21-21.19-2.41-24.29,3-2.5,4.34-.56,10.73,5.45,18A60.67,60.67,0,0,0,40.6,60C31.89,68.68,27.92,77.15,31,82.51c1.89,3.27,6.1,4.84,11.79,4.84a49,49,0,0,0,12.5-1.9C58.46,97.34,63.81,105,70,105s11.54-7.68,14.7-19.57a49,49,0,0,0,12.5,1.9c5.69,0,9.9-1.57,11.79-4.84,3.09-5.36-.88-13.83-9.59-22.51C108.11,51.32,112.08,42.85,109,37.49Zm-2.6,1.5c2.2,3.82-1.12,11-9.13,19a95.24,95.24,0,0,0-10-8A94.84,94.84,0,0,0,85.4,37.42C96.27,34.44,104.18,35.18,106.39,39Zm-29,33.76c-2.5,1.44-5,2.74-7.36,3.91-2.4-1.17-4.86-2.47-7.36-3.91s-4.81-2.9-7.07-4.43c-.18-2.66-.29-5.43-.29-8.32s.11-5.67.29-8.33c2.21-1.49,4.57-3,7.07-4.42s5-2.74,7.36-3.91c2.4,1.17,4.86,2.47,7.36,3.91s4.86,2.93,7.07,4.42c.18,2.66.29,5.44.29,8.33s-.11,5.67-.29,8.33C82.22,69.82,79.86,71.3,77.36,72.75Zm6.73-.61a93.31,93.31,0,0,1-1.54,9.6,89.78,89.78,0,0,1-9.08-3.47q2.69-1.36,5.39-2.92T84.09,72.14ZM66.53,78.27a89.78,89.78,0,0,1-9.08,3.47,93.31,93.31,0,0,1-1.54-9.6q2.55,1.65,5.23,3.21T66.53,78.27ZM52.44,66.11A90.24,90.24,0,0,1,44.92,60a91,91,0,0,1,7.52-6.11c-.1,2-.16,4.05-.16,6.13S52.34,64.11,52.44,66.11Zm3.47-18.25a90.66,90.66,0,0,1,1.54-9.6,91.16,91.16,0,0,1,9.07,3.47c-1.78.91-3.58,1.88-5.38,2.92S57.6,46.77,55.91,47.86Zm17.56-6.13a89.78,89.78,0,0,1,9.08-3.47,90.66,90.66,0,0,1,1.54,9.6q-2.53-1.63-5.23-3.21T73.47,41.73ZM87.56,53.87A89.79,89.79,0,0,1,95.1,60a89.79,89.79,0,0,1-7.54,6.13c.1-2,.16-4,.16-6.13S87.66,55.87,87.56,53.87ZM70,18c4.4,0,9,6.49,11.86,17.39A96.24,96.24,0,0,0,70,40a96.24,96.24,0,0,0-11.86-4.66C61,24.47,65.6,18,70,18ZM38.77,53.59c-5.08-6.15-7-11.47-5.16-14.6,1.29-2.23,4.53-3.41,9.17-3.41A46.19,46.19,0,0,1,54.6,37.42,94.75,94.75,0,0,0,52.71,50a94.61,94.61,0,0,0-9.94,7.91A58.67,58.67,0,0,1,38.77,53.59ZM33.61,81c-2.2-3.81,1.12-11,9.13-19a95.41,95.41,0,0,0,10,7.93,94.75,94.75,0,0,0,1.89,12.6C43.73,85.56,35.82,84.82,33.61,81ZM70,102c-4.4,0-9-6.49-11.86-17.4A96.11,96.11,0,0,0,70,80a96.11,96.11,0,0,0,11.86,4.65C79,95.53,74.4,102,70,102Zm36.39-21c-2.2,3.81-10.12,4.55-21,1.57A94.84,94.84,0,0,0,87.29,70a95.24,95.24,0,0,0,10-7.95C105.27,70,108.59,77.19,106.39,81Z"/></svg>