<svg id="Layer_9" data-name="Layer 9" xmlns="http://www.w3.org/2000/svg" viewBox="0 0 140 120"><defs><style>.cls-1{fill:#212121;}</style></defs><title>scss2</title><path class="cls-1" d="M50.41,71.74a3,3,0,0,0-.74.2,16.75,16.75,0,0,0-3.53,2.11c-1.17,1.14.26,2.4.41,3.61C47.68,87,42.38,95,33.78,96.71a15,15,0,0,1-2.93.22c-5.18,0-8-3.55-6.94-8.64.76-3.73,3.21-6.21,6-8.45a51,51,0,0,1,8.13-5.12c1.86-1,1.88-1.07.1-2.34-3.35-2.41-6.85-4.6-10-7.25a32.84,32.84,0,0,1-4.68-4.75C20,56,19.8,51.49,22.5,46.7A35.21,35.21,0,0,1,33.11,35.29c8.44-6,17.55-10.47,27.91-11.9a28.38,28.38,0,0,1,13.4,1.12c7.43,2.6,10.36,8.83,7.43,16.12C78.46,49.08,71.9,53.85,63.27,56a29.94,29.94,0,0,1-11.88.85A10.46,10.46,0,0,1,44,52.62c-.44-.61-1-1.54-.3-2.12s1.06.5,1.52.89a9.9,9.9,0,0,0,6.56,2.29c9.49-.14,17.52-3.49,23.34-11.24a10.76,10.76,0,0,0,2.32-6.54,5.24,5.24,0,0,0-3.18-5.17c-4.16-2-8.54-1.87-12.9-1.11-10.13,1.77-18.89,6.49-26.76,12.93a18.61,18.61,0,0,0-5.49,7.07,9.85,9.85,0,0,0,1.79,11.11A51.67,51.67,0,0,0,38,66.9c.92.73,1.88,1.42,2.78,2.18,3,2.55,3,2.58,6.51.65,3.08-1.68,6.29-3.16,8.58-6a9.3,9.3,0,0,1,4.41-2.85c3.14-1.05,5.06.23,5.12,3.53,0,1.2-.05,2,1.64,2,1.27,0,1.72.94,1.38,2.24-.81,3.16-1.56,6.34-2.33,9.51a4.34,4.34,0,0,0-.1,2.15c.83,0,.84-.75,1.06-1.21,3.16-6.74,6.58-13.37,8.88-20.48A2.16,2.16,0,0,1,78.08,57c1.34-.06,2.79-.56,4,.46.63.55.09,1.24-.11,1.82-1.25,3.67-1.1,6.16.74,9.92,2.32-3.94,4.86-7.57,6-11.89C89.5,54.41,91,53.33,94,53.88c1.32.24,2,.78,1.36,2.29a11.28,11.28,0,0,0,.58,10c.6,1.11,1,1.23,2.23.79,5.81-2.16,11.56-2.32,16.88,1.38a9.29,9.29,0,0,1,4.31,8.34,6.5,6.5,0,0,1-4,5.58c-.44.15-1,.42-1.28,0s.27-.74.6-1c3.39-2.77,3.52-5.89.4-9a11,11,0,0,0-5.9-2.92,21,21,0,0,0-9.93.29c-.69.2-1.29.34-1.1,1.43.91,5.22-.84,8.2-5.83,10.19l-.73.29c-1.32.52-2.69,1-3.87-.15s-.81-2.45-.46-3.7a13.83,13.83,0,0,1,4.42-6.59c.82-.73,1.06-1.32.45-2.31C91,67,90.62,65,90,62.59c-1.88,3.35-3.57,6.43-5.54,9.32-.4.59.06,1.13.23,1.67a9.1,9.1,0,0,1-10.64,11.6c-1.66-.32-2.19-1.58-1.07-3.07,1.56-2.09,3.24-4.11,5-6,1.38-1.53,1.87-2.92.57-4.78-1-1.51-1.19-3.44-1.77-5.21-.77.39-.83,1.16-1.08,1.78a138,138,0,0,1-7.36,14.94,10,10,0,0,1-2.41,3.07c-1.82,1.44-3.53.9-4.24-1.33a14.78,14.78,0,0,1-.48-4.44c-1,2-1.76,3.61-2.58,5.13S56.78,88,54.71,88,51.79,86.45,51,84.9c-1.8-3.73-1.64-7.6-.8-11.51.11-.51.2-1,.29-1.54l.15-.25ZM77,81.83c1.92-1,3.52-2.22,3.48-4.71L76.8,81.58l-.18.35ZM42.75,79c0-.23-.07-.75-.07-1.27,0-1.72-.65-1.83-2-1a50.77,50.77,0,0,0-7.41,5.44A9.46,9.46,0,0,0,30,88.26c-.22,2.6,1.06,3.63,3.59,3A12.51,12.51,0,0,0,42.75,79Zm12-1a17.21,17.21,0,0,0,.1,1.78c.09.77.16,1.81.95,2s1.18-.85,1.5-1.5a76.93,76.93,0,0,0,5.08-13.51c.2-.73.72-1.63,0-2.18s-1.59.17-2.25.66a6.64,6.64,0,0,0-1.39,1.36A18.45,18.45,0,0,0,54.74,78Zm39.32-5.83a11.34,11.34,0,0,0-3.61,5.35c-.14.36-.31.8,0,1.08s.73-.06,1.06-.23A5.06,5.06,0,0,0,94.06,72.21Z"/></svg>