<?xml version="1.0" encoding="utf-8"?>
<!-- Generator: Adobe Illustrator 25.0.0, SVG Export Plug-In . SVG Version: 6.00 Build 0)  -->
<svg version="1.1" xmlns="http://www.w3.org/2000/svg" xmlns:xlink="http://www.w3.org/1999/xlink" x="0px" y="0px"
	 viewBox="0 0 300 300" style="enable-background:new 0 0 300 300;" xml:space="preserve">
<style type="text/css">
	.st0{display:none;}
	.st1{display:inline;fill:#1D1D1B;}
	.st2{fill:#1D1D1B;}
	.st3{display:inline;}
	.st4{fill:none;stroke:#222222;stroke-width:2.1582;stroke-linecap:round;stroke-linejoin:round;stroke-miterlimit:10;}
</style>
<g id="Layer_1" class="st0">
	<path class="st1" d="M247.4,203.8c0,0,0-0.1,0-0.1c0,0,0,0,0,0l-16.5-82.5c-0.1-0.7-0.8-1.3-1.6-1.2l-12.6,0.9l7.3-19.5
		c0,0,0,0,0,0c0-0.1,0.1-0.2,0.1-0.3c0,0,0-0.1,0-0.1c0-0.1,0-0.2,0-0.3c0,0,0-0.1,0-0.1c0-0.1,0-0.1,0-0.2c0,0,0,0,0,0c0,0,0,0,0,0
		c-6.1-16.3-17.1-29.4-31.8-37.8c-15.4-8.9-34.2-12.6-55.9-11.1c-24.1,1.7-43.2,10.3-55.3,25c-4.6,5.4-8.2,11.7-10.8,18.5
		c0,0.1-0.1,0.2-0.1,0.3c0,0,0,0,0,0l-12.8,34.3c-4.9,13.1-5.8,28.4-2.6,44.2c4.7,23.7,16.9,43.6,35.1,57.5
		c15.6,11.8,34.7,18,55.8,18c2.5,0,5.1-0.1,7.7-0.3c1.2-0.1,2.4-0.2,3.7-0.3c0.2,0,0.5-0.1,0.7-0.1l0.4-0.1c0.8-0.1,1.6-0.2,2.4-0.3
		c0.3,0,0.6-0.1,1-0.2l0.4-0.1c0.7-0.1,1.4-0.2,2.1-0.4c0.4-0.1,0.8-0.2,1.2-0.3l0.2,0c0.3-0.1,0.7-0.2,1-0.2l0.2,0c0,0,0,0,0,0
		c0,0,0,0,0,0l0.3-0.1c0.2,0,0.4-0.1,0.5-0.1c0.3-0.1,0.7-0.2,1-0.3c0.8-0.2,1.5-0.4,2.3-0.7l0.3-0.1c0.2,0,0.3-0.1,0.5-0.1
		c1-0.3,2-0.7,2.9-1c0.1,0,0.2-0.1,0.4-0.1l0.2-0.1c0.8-0.3,1.5-0.6,2.2-1c0.3-0.1,0.6-0.3,0.9-0.4c0.6-0.3,1.3-0.6,1.9-1l0.2-0.1
		c0.2-0.1,0.4-0.2,0.6-0.3c0.9-0.5,1.7-1,2.4-1.4c0,0,0.1-0.1,0.1-0.1c0.8-0.5,1.6-1.1,2.4-1.7c0.2-0.1,0.3-0.2,0.5-0.4l0.2-0.2
		c0.6-0.4,1.1-0.9,1.7-1.3c0.2-0.2,0.5-0.4,0.7-0.6c0.6-0.5,1.1-1,1.7-1.6l0.2-0.2c0.1-0.1,0.2-0.2,0.3-0.3c0.7-0.7,1.4-1.5,2-2.2
		c0.1-0.1,0.2-0.2,0.3-0.3l0.2-0.2c0.5-0.6,1-1.2,1.5-1.9c0.2-0.3,0.4-0.5,0.6-0.8c0.4-0.6,0.8-1.2,1.2-1.9l0.2-0.3
		c0.1-0.1,0.2-0.2,0.2-0.4l5,15.1c0,0,0,0,0,0c0,0.1,0.1,0.2,0.2,0.3c0,0,0,0,0,0.1c0,0,0,0,0,0c0.1,0.1,0.2,0.2,0.3,0.3
		c0,0,0.1,0,0.1,0.1c0.1,0.1,0.2,0.1,0.3,0.1c0,0,0.1,0,0.1,0c0.1,0,0.2,0.1,0.4,0.1c0,0,0,0,0,0c0,0,0,0,0,0c0,0,0.1,0,0.1,0
		l29.6-2.1c0.6,0,1.1-0.4,1.3-1l12.8-34.3c0,0,0-0.1,0-0.1c0-0.1,0-0.1,0.1-0.2c0,0,0-0.1,0-0.1C247.4,204,247.4,203.9,247.4,203.8z
		 M203.6,235.8L199,222l4.8-12.8l6.3-17l4.6,13.8l-3.1,8.3L203.6,235.8z M194.5,154.4c0,0.2,0,0.4,0,0.6l0,0.7c0,0.2,0,0.4,0,0.6
		l-0.1,0.7c0,0.2,0,0.4-0.1,0.6c0,0.1,0,0.2-0.1,0.3l-0.1,0.3c0,0.2-0.1,0.4-0.1,0.5c0,0.1-0.1,0.3-0.1,0.4l-0.1,0.2
		c0,0.2-0.1,0.4-0.1,0.6l-0.2,0.7c0,0.2-0.1,0.3-0.1,0.5c0,0.1-0.1,0.3-0.1,0.4l-0.1,0.2c-0.1,0.2-0.1,0.4-0.2,0.6
		c-1.2,3.2-3,6.1-5.5,8.6c-5.5,5.6-13.5,8.9-23.3,9.6c-0.8,0.1-1.6,0.1-2.4,0.1c-0.3,0-0.5,0-0.8,0c-0.5,0-1.1,0-1.6,0
		c-0.3,0-0.6,0-0.9,0c-0.5,0-1-0.1-1.5-0.1c-0.3,0-0.6,0-0.9-0.1c-0.1,0-0.3,0-0.4,0l4.3-11.5l4.9-13.1l29.5-1.7l0,0.2L194.5,154.4z
		 M111.7,120.1c0-0.3,0-0.6,0-0.9c0-0.5,0-1.1,0.1-1.6c0-0.3,0.1-0.7,0.1-1c0-0.5,0.1-1,0.2-1.5c0-0.3,0.1-0.7,0.1-1
		c0.1-0.5,0.1-0.9,0.2-1.4c0.1-0.3,0.1-0.6,0.2-0.9c0.1-0.5,0.2-0.9,0.3-1.4c0.1-0.3,0.1-0.6,0.2-0.9c0.1-0.5,0.3-1,0.4-1.5
		c0.1-0.2,0.1-0.5,0.2-0.7c0.2-0.7,0.5-1.4,0.7-2.1c0.2-0.4,0.3-0.9,0.5-1.3c0.1-0.2,0.2-0.5,0.3-0.7l0,0l0-0.1c0,0,0,0,0,0l0,0
		c0.1-0.3,0.2-0.5,0.4-0.7c0.1-0.1,0.1-0.3,0.2-0.4l0,0l0.4-0.8c0.2-0.4,0.4-0.7,0.7-1.2l0.4-0.6c0.3-0.4,0.5-0.8,0.8-1.2l0.2-0.2
		c0.1-0.1,0.1-0.2,0.2-0.3c0.4-0.5,0.8-1,1.2-1.5c0.1-0.1,0.1-0.2,0.2-0.2l0.2-0.2l0,0c0,0,0,0,0,0c0.3-0.4,0.7-0.7,1-1
		c0.1-0.1,0.3-0.2,0.4-0.4l0.2-0.2c0.3-0.3,0.6-0.6,1-0.9c0.1-0.1,0.2-0.1,0.2-0.2c0.1-0.1,0.3-0.2,0.4-0.3c0,0,0,0,0,0
		c0.3-0.3,0.7-0.5,1.1-0.8c0.2-0.2,0.4-0.3,0.6-0.4c0.4-0.3,0.8-0.5,1.2-0.8c0,0,0,0,0,0l0.2-0.2c0.1-0.1,0.2-0.2,0.4-0.2
		c0.6-0.3,1.1-0.6,1.7-0.9c0,0,0.1-0.1,0.2-0.1l0,0c0,0,0.1,0,0.1-0.1c0.6-0.3,1.2-0.6,1.9-0.9c0.1-0.1,0.3-0.1,0.4-0.2l0.3-0.1
		c0.5-0.2,1-0.4,1.5-0.5l0.9-0.3l-11.5,30.8c-0.2,0.1-0.4,0.1-0.6,0.2c-0.5,0.1-1.1,0.3-1.6,0.5c-0.3,0.1-0.6,0.2-0.9,0.3
		c-0.5,0.2-1.1,0.4-1.6,0.6l-0.2,0.1c-0.2,0.1-0.3,0.1-0.5,0.2c-0.7,0.3-1.4,0.6-2.1,0.9c0,0-0.1,0.1-0.1,0.1
		c-0.7,0.3-1.4,0.7-2.1,1.1c-0.1,0.1-0.3,0.2-0.4,0.3l-0.2,0.1c-0.1,0.1-0.2,0.1-0.3,0.2c0,0,0,0,0-0.1c0-0.2,0-0.4,0-0.6
		C111.7,121.4,111.7,120.7,111.7,120.1z M142.4,85.7c0.2,0,0.4,0,0.6-0.1c0.4,0,0.8-0.1,1.2-0.1c1-0.1,2.1-0.1,3.1-0.1
		c0.3,0,0.6,0,0.9,0c0.7,0,1.4,0,2.1,0c0.4,0,0.7,0.1,1.1,0.1c0.6,0,1.2,0.1,1.8,0.2c0.4,0,0.8,0.1,1.2,0.2c0.5,0.1,1.1,0.1,1.6,0.2
		c0.4,0.1,0.8,0.2,1.2,0.3c0.5,0.1,1,0.2,1.5,0.3c0.4,0.1,0.8,0.2,1.2,0.4c0.5,0.1,0.9,0.3,1.4,0.4c0.4,0.1,0.8,0.3,1.2,0.5
		c0.4,0.2,0.9,0.3,1.3,0.5c0.4,0.2,0.8,0.4,1.2,0.5c0.4,0.2,0.8,0.4,1.2,0.6c0.4,0.2,0.7,0.4,1.1,0.6c0.4,0.2,0.8,0.4,1.1,0.6
		c0.4,0.2,0.7,0.5,1.1,0.7c0.4,0.2,0.7,0.5,1.1,0.7c0.3,0.3,0.7,0.5,1,0.8c0.3,0.3,0.7,0.5,1,0.8c0.3,0.3,0.6,0.6,0.9,0.9
		c0.3,0.3,0.6,0.6,0.9,0.9c0.3,0.3,0.6,0.6,0.8,0.9c0.3,0.3,0.6,0.6,0.8,1c0.3,0.3,0.5,0.7,0.8,1c0.3,0.3,0.5,0.7,0.8,1
		c0.2,0.3,0.5,0.7,0.7,1.1c0.2,0.4,0.5,0.7,0.7,1.1c0.2,0.4,0.4,0.7,0.6,1.1c0.2,0.3,0.3,0.6,0.5,0.9l-4.8,12.8l-2.8,7.4l-12.2,0.9
		c-6.8-5.3-15.5-8.1-25.2-8.1c-1.2,0-2.5,0-3.8,0.1c-0.8,0.1-1.7,0.1-2.8,0.3c-0.2,0-0.5,0.1-0.7,0.1c-0.6,0.1-1.2,0.2-1.9,0.3
		l11.6-31c0.2,0,0.3-0.1,0.5-0.1l0,0l0.1,0c0.3-0.1,0.5-0.1,0.8-0.2c0.6-0.1,1.2-0.2,1.8-0.3l0,0l1-0.1c0.2,0,0.3,0,0.4-0.1
		C142.1,85.7,142.3,85.7,142.4,85.7z M162.4,154.2l-0.9,2.3l-8.7,23.3c-0.1,0-0.3-0.1-0.4-0.1c-0.3-0.1-0.6-0.1-1-0.2
		c-0.2,0-0.4-0.1-0.6-0.1l-3.7-18.6l10.8-29l4.2,20.8L162.4,154.2z M112.3,125.9c0.4-0.3,0.8-0.5,1.2-0.8l0.2-0.1
		c0.1-0.1,0.2-0.1,0.3-0.2c0.7-0.4,1.3-0.7,1.9-1c0,0,0.1-0.1,0.1-0.1c0.6-0.3,1.2-0.6,1.9-0.9c0.1-0.1,0.3-0.1,0.4-0.2l0.3-0.1
		c0.5-0.2,1-0.4,1.5-0.5c0.3-0.1,0.6-0.2,0.8-0.3c0.5-0.2,1-0.3,1.6-0.5c0.3-0.1,0.5-0.1,0.8-0.2l0.5-0.1c0,0,0,0,0,0
		c0.6-0.1,1.2-0.3,1.9-0.4c0.8-0.1,1.6-0.3,2.4-0.4l0.6-0.1c1-0.1,1.8-0.2,2.6-0.3c9.9-0.7,18.6,1.5,25.5,6.2l-12.7,34.1
		c-0.1,0.3-0.1,0.5-0.1,0.8l3.5,17.6c-17.3-5.4-30.1-21.3-34.4-42.9c-0.6-3.2-1.1-6.4-1.3-9.4C112,126.1,112.1,126,112.3,125.9z
		 M175.7,123.7l6.9-18.6l20.1-1.4l17.6-1.2l-6.9,18.6l-5.2,0.4L175.7,123.7z M83.2,78.2c11.6-14.1,30-22.3,53.2-24
		c3-0.2,6-0.3,8.9-0.3c36.2,0,63.2,16.3,75.1,45.5L183,102l-0.5,0c-0.1-0.3-0.3-0.5-0.4-0.8c-0.2-0.4-0.4-0.8-0.6-1.2
		c-0.2-0.4-0.5-0.8-0.8-1.2c-0.2-0.4-0.5-0.8-0.7-1.1c-0.3-0.4-0.6-0.8-0.8-1.1c-0.3-0.4-0.6-0.7-0.8-1.1c-0.3-0.4-0.6-0.7-0.9-1
		c-0.3-0.3-0.6-0.7-0.9-1c-0.3-0.3-0.6-0.6-1-0.9c-0.3-0.3-0.7-0.6-1-0.9c-0.3-0.3-0.7-0.6-1-0.8c-0.4-0.3-0.7-0.6-1.1-0.9
		c-0.4-0.3-0.7-0.5-1.1-0.8c-0.4-0.3-0.8-0.5-1.2-0.8c-0.4-0.2-0.8-0.5-1.2-0.7c-0.4-0.2-0.8-0.5-1.3-0.7c-0.4-0.2-0.8-0.4-1.3-0.6
		c-0.4-0.2-0.9-0.4-1.3-0.6c-0.5-0.2-0.9-0.4-1.4-0.5c-0.4-0.2-0.9-0.3-1.3-0.5c-0.5-0.2-1-0.3-1.5-0.5c-0.4-0.1-0.9-0.3-1.3-0.4
		c-0.5-0.1-1.1-0.3-1.7-0.4c-0.4-0.1-0.8-0.2-1.2-0.3c-0.6-0.1-1.2-0.2-1.9-0.3c-0.4-0.1-0.8-0.1-1.1-0.2c-0.7-0.1-1.4-0.1-2.1-0.2
		c-0.3,0-0.7-0.1-1-0.1c-0.8,0-1.6-0.1-2.4-0.1c-0.3,0-0.5,0-0.8,0c-0.9,0-1.9,0-2.8,0.1c-0.2,0-0.3,0-0.5,0c-0.4,0-0.8,0.1-1.3,0.1
		c-0.2,0-0.4,0-0.6,0.1c-0.2,0-0.3,0-0.5,0.1c-0.2,0-0.4,0-0.6,0.1l-0.9,0.1c-0.6,0.1-1.3,0.2-2,0.3l-0.2,0c0,0-0.1,0-0.1,0
		c-0.1,0-0.3,0.1-0.4,0.1l-0.2,0.1c-0.6,0.1-1.1,0.2-1.7,0.4c0,0-0.1,0-0.1,0c-0.3,0.1-0.6,0.1-0.9,0.2c-0.5,0.1-1.1,0.3-1.6,0.5
		c0,0,0,0,0,0c0,0,0,0,0,0l0,0c0,0-0.1,0-0.1,0l-0.1,0c-0.2,0.1-0.5,0.1-0.7,0.2c0,0-0.1,0-0.1,0c-0.5,0.2-1,0.4-1.5,0.6
		c0,0,0,0,0,0l-0.2,0.1c-0.2,0.1-0.3,0.1-0.5,0.2c-0.8,0.3-1.5,0.7-2.3,1c-0.1,0-0.1,0.1-0.2,0.1c-0.6,0.3-1.2,0.7-1.8,1
		c0,0-0.1,0-0.1,0.1c0,0,0,0,0,0c0,0,0,0,0,0c-0.1,0.1-0.3,0.2-0.4,0.3l-0.2,0.2c-0.4,0.3-0.9,0.6-1.3,0.9c-0.2,0.1-0.4,0.3-0.7,0.5
		c0,0,0,0,0,0c-0.3,0.3-0.7,0.5-1.1,0.8c0,0-0.1,0-0.1,0.1c-0.2,0.2-0.4,0.4-0.7,0.6c-0.4,0.3-0.7,0.6-1.1,1l-0.2,0.2
		c-0.1,0.1-0.2,0.2-0.4,0.4c-0.4,0.4-0.8,0.8-1.1,1.2l0,0l-0.1,0.1c-0.1,0.1-0.1,0.1-0.2,0.2c0,0-0.1,0.1-0.1,0.1l-0.1,0.1
		c-0.5,0.6-1,1.2-1.4,1.8c-0.1,0.1-0.1,0.1-0.2,0.2l-0.1,0.1c0,0-0.1,0.1-0.1,0.1l0,0c-0.3,0.4-0.6,0.8-0.9,1.3c0,0,0,0,0,0
		c0,0,0,0.1-0.1,0.1c-0.1,0.1-0.2,0.3-0.3,0.4l-0.1,0.2c0,0-0.1,0.1-0.1,0.1c-0.1,0.2-0.2,0.4-0.4,0.6c-0.1,0.2-0.2,0.4-0.3,0.6l0,0
		c0,0,0,0.1-0.1,0.1c-0.1,0.2-0.2,0.4-0.3,0.6l-0.1,0.2c-0.1,0.2-0.2,0.4-0.3,0.7c-0.1,0.2-0.2,0.4-0.3,0.6c0,0,0,0,0,0c0,0,0,0,0,0
		l-0.1,0.2c-0.1,0.1-0.1,0.3-0.2,0.4l-0.1,0.2c-0.2,0.5-0.4,0.9-0.6,1.4c-2.4,6.2-3.4,13.4-2.9,21.4c0,0,0,0,0,0c0,0,0,0,0,0
		c0.2,3.4,0.7,7,1.4,10.6c4.8,23.7,19.3,40.9,39,45.9c1.4,0.4,2.9,0.7,4.4,0.9c0,0,0,0,0,0c0.8,0.1,1.6,0.2,2.4,0.3
		c0.2,0,0.4,0,0.7,0.1c0.7,0.1,1.4,0.1,2.1,0.1c0.1,0,0.2,0,0.3,0c0.6,0,1.3,0,1.9,0c0.2,0,0.3,0,0.5,0c0.2,0,0.4,0,0.6,0
		c0.8,0,1.6,0,2.4-0.1c6.6-0.5,12.5-2,17.4-4.7c3-1.6,5.6-3.5,7.8-5.8c2.8-2.8,4.8-6.1,6.2-9.7c0.1-0.2,0.2-0.4,0.2-0.7l0-0.1
		c0.1-0.2,0.1-0.3,0.2-0.5c0.1-0.2,0.1-0.4,0.2-0.6l0.1-0.3c0-0.1,0.1-0.3,0.1-0.4c0.1-0.2,0.1-0.4,0.2-0.7l0-0.2
		c0-0.2,0.1-0.3,0.1-0.5c0-0.2,0.1-0.4,0.1-0.7l0-0.3c0-0.1,0.1-0.3,0.1-0.4c0-0.2,0.1-0.4,0.1-0.6l0-0.3c0-0.1,0-0.3,0-0.4
		c0-0.2,0-0.4,0-0.7l0-0.3c0-0.1,0-0.2,0-0.4c0-0.2,0-0.5,0-0.8v-0.6c0-0.5,0-0.9-0.1-1.4c0-0.6-0.5-1.1-1-1.3
		c-0.2-0.1-0.4-0.1-0.6-0.1l-30.7,1.7l-5-25l13.4-0.9l41-2.9c0,0,0,0,0,0l13.6-0.9l15.9,79.6l-26.7,1.9l-5.7-17.2c0,0,0,0,0,0
		c0-0.1-0.1-0.2-0.2-0.3c0,0,0,0,0,0c0,0,0,0,0,0c-0.1-0.1-0.1-0.2-0.2-0.2c0,0,0,0-0.1,0c0,0,0,0,0,0c-0.1-0.1-0.2-0.1-0.3-0.2
		c0,0,0,0,0,0c0,0,0,0-0.1,0c0,0,0,0-0.1,0c-0.1,0-0.2,0-0.3-0.1c0,0,0,0,0,0c0,0,0,0,0,0c0,0,0,0-0.1,0c0,0,0,0,0,0c0,0,0,0,0,0
		c-0.1,0-0.2,0-0.3,0c0,0,0,0-0.1,0c0,0-0.1,0-0.1,0c-0.1,0-0.2,0.1-0.2,0.1c0,0,0,0,0,0c0,0,0,0-0.1,0c0,0-0.1,0-0.1,0.1
		c-0.1,0-0.1,0.1-0.2,0.1c0,0,0,0-0.1,0.1c0,0,0,0-0.1,0.1c0,0,0,0,0,0c-0.1,0.1-0.1,0.2-0.2,0.2c-0.4,0.8-0.9,1.7-1.5,2.6
		c-0.1,0.2-0.2,0.4-0.3,0.5l-0.1,0.2c-0.4,0.6-0.8,1.2-1.2,1.8c-0.2,0.2-0.3,0.5-0.5,0.7c-0.4,0.6-0.9,1.2-1.4,1.8l-0.2,0.2
		c-0.1,0.1-0.1,0.2-0.2,0.3c-0.6,0.7-1.2,1.4-1.9,2.1c-0.1,0.1-0.2,0.2-0.3,0.3l-0.2,0.2c-0.5,0.5-1,1-1.5,1.5
		c-0.2,0.2-0.5,0.4-0.7,0.6c-0.5,0.4-1,0.8-1.5,1.3l-0.2,0.2c-0.1,0.1-0.3,0.2-0.4,0.3c-0.8,0.6-1.6,1.1-2.3,1.6
		c0,0-0.1,0.1-0.1,0.1c-0.7,0.4-1.4,0.9-2.2,1.3c-0.2,0.1-0.4,0.2-0.5,0.3l-0.2,0.1c-0.6,0.3-1.2,0.6-1.8,0.9l-0.1,0
		c-0.2,0.1-0.5,0.2-0.7,0.3c-0.7,0.3-1.4,0.6-2.1,0.9l-0.6,0.2c-0.9,0.3-1.8,0.7-2.8,1c-0.1,0-0.3,0.1-0.4,0.1l-0.3,0.1
		c-0.7,0.2-1.4,0.4-2.2,0.6c-0.3,0.1-0.7,0.2-1,0.3c-0.6,0.2-1.3,0.3-2,0.5l-0.1,0c-0.4,0.1-0.8,0.2-1.2,0.3c-0.7,0.1-1.3,0.2-2,0.4
		l-0.4,0.1c-0.3,0.1-0.6,0.1-0.9,0.1c-0.8,0.1-1.5,0.2-2.3,0.3l-0.5,0.1c-0.2,0-0.4,0.1-0.7,0.1c-1.2,0.1-2.4,0.2-3.5,0.3
		c-5.8,0.4-11.5,0.3-17.1-0.2c-16.6-1.6-31.7-7.3-44.4-16.9c-12.1-9.3-21.5-21.3-27.6-35.4c-2.8-6.4-4.9-13.2-6.4-20.4
		c-0.2-1.2-0.5-2.4-0.7-3.9l-0.1-0.9c-0.1-0.9-0.2-1.7-0.3-2.5c-0.1-0.5-0.1-0.9-0.2-1.3l0-0.3c-0.1-1.1-0.2-2.3-0.3-3.6l-0.1-0.9
		c-0.1-1.4-0.1-2.6-0.1-3.7l0-0.5c0-1.1,0-2.1,0.1-3.3l0-0.8c0.1-1.3,0.2-2.4,0.3-3.6l0.1-0.6c0.1-1,0.2-2,0.4-3.1l0.1-0.8
		c0.2-1.2,0.4-2.3,0.6-3.4l0.1-0.6c0.2-1,0.5-1.9,0.7-2.9l0.2-0.7c0.3-1.1,0.6-2.2,1-3.2l0.2-0.7C74.8,90.2,78.4,83.8,83.2,78.2z
		 M163.1,244.5c-0.7,0.1-1.3,0.2-2,0.4l-0.4,0.1c-0.3,0.1-0.6,0.1-0.9,0.1c-0.8,0.1-1.5,0.2-2.3,0.3l-0.5,0.1
		c-0.2,0-0.4,0.1-0.7,0.1c-1.2,0.1-2.4,0.2-3.5,0.3c-23.3,1.6-44.5-4.3-61.4-17.1c-17.6-13.5-29.4-32.8-34-55.7
		c-3.1-15.2-2.2-30,2.5-42.6l5.7-15.3c0,0.5-0.1,1-0.1,1.6l0,0.9c0,1.2-0.1,2.3-0.1,3.4l0,0.5c0,1.2,0,2.4,0.1,3.8
		c0,0.3,0,0.6,0.1,0.9c0.1,1.3,0.2,2.5,0.3,3.7l0,0.3c0.1,1.2,0.3,2.5,0.5,4l0.1,1c0.2,1.6,0.5,2.8,0.7,4.1
		c4.1,20.7,14,38.5,28.6,52c2.1,1.9,4.3,3.8,6.5,5.5c1,0.8,2.1,1.5,3.2,2.3c0.3,0.2,0.7,0.5,1.1,0.7c0.7,0.5,1.5,1,2.2,1.4
		c0.4,0.3,0.8,0.5,1.3,0.8c0.7,0.4,1.4,0.8,2.1,1.2c0.5,0.3,0.9,0.5,1.4,0.8c0.7,0.4,1.4,0.7,2.1,1.1c0.5,0.2,0.9,0.5,1.4,0.7
		c0.7,0.3,1.4,0.7,2.1,1c0.5,0.2,0.9,0.4,1.4,0.6c0.7,0.3,1.5,0.6,2.3,0.9c0.5,0.2,0.9,0.4,1.4,0.5c0.8,0.3,1.7,0.6,2.5,0.9
		c0.4,0.1,0.8,0.3,1.2,0.4c1.1,0.4,2.3,0.7,3.4,1c0.1,0,0.2,0.1,0.4,0.1c1.3,0.4,2.6,0.7,3.9,1c0.3,0.1,0.6,0.1,1,0.2
		c1,0.2,2,0.4,2.9,0.6c0.5,0.1,0.9,0.2,1.4,0.2c0.9,0.1,1.7,0.3,2.6,0.4c0.5,0.1,1,0.1,1.6,0.2c0.8,0.1,1.7,0.2,2.5,0.3
		c0.5,0.1,1.1,0.1,1.6,0.2c0.8,0.1,1.7,0.1,2.5,0.2c0.6,0,1.1,0.1,1.7,0.1c0.8,0,1.7,0.1,2.5,0.1c0.5,0,1.1,0,1.6,0
		c0.2,0,0.4,0,0.7,0c0.7,0,1.5,0,2.2,0c0.4,0,0.9,0,1.3,0c1.4,0,2.8-0.1,4.2-0.2c1.2-0.1,2.4-0.2,3.7-0.3c0.2,0,0.5-0.1,0.7-0.1
		l0.4-0.1c0.8-0.1,1.6-0.2,2.4-0.3c0.3,0,0.6-0.1,1-0.2l0.4-0.1c0.7-0.1,1.3-0.2,2-0.4l-7.4,19.7l-4.2,11.3c-0.1,0-0.2,0.1-0.4,0.1
		l-0.2,0C163.9,244.3,163.5,244.4,163.1,244.5z M194.6,223.9c-0.1,0.2-0.2,0.3-0.3,0.5l-0.2,0.3c-0.4,0.6-0.8,1.2-1.2,1.7
		c-0.2,0.3-0.4,0.5-0.5,0.8c-0.4,0.6-0.9,1.2-1.4,1.8l-0.2,0.2c-0.1,0.1-0.1,0.2-0.2,0.3c-0.6,0.7-1.2,1.4-1.9,2.1
		c-0.1,0.1-0.2,0.2-0.3,0.3l-0.2,0.2c-0.5,0.5-1,1-1.5,1.5c-0.2,0.2-0.5,0.4-0.7,0.6c-0.5,0.4-1,0.8-1.5,1.3l-0.2,0.2
		c-0.1,0.1-0.3,0.2-0.4,0.3c-0.8,0.6-1.5,1.1-2.3,1.6c0,0-0.1,0.1-0.1,0.1c-0.7,0.4-1.4,0.9-2.3,1.3c-0.2,0.1-0.4,0.2-0.6,0.3
		l-0.2,0.1c-0.6,0.3-1.2,0.6-1.8,0.9c-0.3,0.1-0.6,0.3-0.8,0.4c-0.7,0.3-1.4,0.6-2.1,0.9l-0.6,0.2c-0.9,0.3-1.8,0.7-2.8,1
		c-0.1,0-0.3,0.1-0.4,0.1l-0.3,0.1c-0.4,0.1-0.8,0.2-1.2,0.4l1.4-3.7l10.1-27.1l0.1,0c0.3-0.1,0.7-0.2,1-0.3
		c0.8-0.2,1.5-0.4,2.3-0.7l0.3-0.1c0.2,0,0.3-0.1,0.5-0.2c1-0.3,2-0.7,2.9-1c0.1,0,0.2-0.1,0.4-0.1l0.2-0.1c0.8-0.3,1.5-0.6,2.2-1
		c0.3-0.1,0.5-0.2,0.8-0.4l0.1,0c0.6-0.3,1.3-0.6,1.9-1l0.2-0.1c0.2-0.1,0.4-0.2,0.6-0.3c0.1,0,0.2-0.1,0.2-0.1
		c0.8-0.4,1.5-0.9,2.2-1.3c0,0,0.1-0.1,0.1-0.1c0.8-0.5,1.6-1,2.4-1.7c0.2-0.1,0.3-0.2,0.5-0.4l0.2-0.2c0.6-0.4,1.1-0.9,1.7-1.3
		c0.2-0.2,0.5-0.4,0.7-0.6c0.6-0.5,1.1-1,1.7-1.6l0.2-0.2c0.1-0.1,0.2-0.2,0.3-0.3c0.3-0.3,0.6-0.6,0.9-0.9l-8.6,23
		C195.6,222.2,195.2,223,194.6,223.9z M232,236.8l-26.3,1.8l11.7-31.2l26.3-1.8L232,236.8z"/>
</g>
<g id="Layer_2" class="st0">
	<path class="st1" d="M234.5,157.5L234.5,157.5c-3.3-16.2-12.5-27.7-28.3-34.9l9.9-26.6c0,0,0-0.1,0-0.1c0-0.1,0-0.1,0.1-0.2
		c0,0,0-0.1,0-0.1c0-0.1,0-0.1,0-0.2c0,0,0-0.1,0-0.1c0,0,0-0.1,0-0.1c-7.7-30.3-36.9-46.6-78.2-43.7c-30.9,2.2-51.5,13-58.2,30.5
		c0,0.1-0.1,0.1-0.1,0.2l-12.8,34.3c-2.5,6.8-3,14.6-1.3,23.1c2.4,12.2,8.7,21.5,18.9,28.4l-11.9,32c-0.1,0.3-0.1,0.6-0.1,0.9
		c3.8,16.8,14.2,30,29.9,38.2c12.6,6.6,28.7,10,47.1,10c3.6,0,7.3-0.1,11-0.4c1.3-0.1,2.8-0.2,4.3-0.4l0.6-0.1
		c1.3-0.1,2.7-0.3,4-0.5l0.7-0.1c1.4-0.2,2.7-0.4,3.9-0.7l0.6-0.1c1.4-0.3,2.7-0.6,4-0.8c0,0,0,0,0,0c1.1-0.3,2.2-0.6,3.3-0.9
		l0.8-0.2c1.1-0.3,2.1-0.6,3.2-1l0.4-0.1c1-0.3,1.9-0.6,2.8-1l0.6-0.2c1-0.4,2-0.8,2.9-1.2l0.5-0.2c0.9-0.4,1.7-0.8,2.5-1.2l0.5-0.2
		c0.9-0.4,1.8-0.9,2.7-1.4l0.6-0.3c0.8-0.5,1.6-0.9,2.5-1.5l0.1-0.1c0.8-0.5,1.6-1,2.4-1.6c0.2-0.1,0.4-0.3,0.5-0.4
		c0.9-0.6,1.6-1.2,2.3-1.8l0.2-0.1c0.7-0.5,1.3-1.1,2-1.8l0.5-0.4c0.7-0.7,1.3-1.3,1.9-1.9l0.3-0.3c0.5-0.6,1.1-1.2,1.6-1.8l0.3-0.4
		c0.5-0.7,1.1-1.4,1.6-2.2l0.3-0.5c0.5-0.7,0.9-1.4,1.3-2.1l0.2-0.3c0.4-0.7,0.8-1.5,1.2-2.4l0.3-0.6c0.4-0.9,0.8-1.7,1.1-2.5
		l12.8-34.3c0,0,0,0,0,0l0,0c0,0,0-0.1,0-0.1C235.7,173.8,236.2,165.9,234.5,157.5z M199.7,119.9c-0.2-0.1-0.4-0.1-0.6-0.2
		c-1.2-0.4-2.4-0.8-3.7-1.2c-0.2-0.1-0.4-0.1-0.6-0.2c-1.3-0.4-2.5-0.7-3.8-1.1c-0.1,0-0.2,0-0.3-0.1c-1.3-0.3-2.6-0.7-3.9-1
		c-0.1,0-0.1,0-0.2,0c-1.3-0.3-2.6-0.6-4-0.9c-0.2,0-0.3-0.1-0.5-0.1c-1.3-0.3-2.5-0.5-3.8-0.7c-0.2,0-0.4-0.1-0.6-0.1
		c-1.2-0.2-2.5-0.4-3.7-0.6c-0.2,0-0.4-0.1-0.6-0.1c-1.2-0.2-2.5-0.4-3.7-0.6c0,0-0.1,0-0.1,0l5-13.3l37.9-2.7l-9.1,24.3
		c-0.1,0-0.2-0.1-0.2-0.1C202,120.8,200.9,120.4,199.7,119.9z M159.6,111.7c-0.3,0-0.6-0.1-0.9-0.1c-0.7-0.1-1.4-0.2-2.1-0.3
		c-0.4-0.1-0.8-0.1-1.2-0.2c-0.6-0.1-1.2-0.2-1.7-0.2c-0.4-0.1-0.8-0.1-1.2-0.2c-0.5-0.1-1.1-0.1-1.6-0.2c-0.4-0.1-0.8-0.1-1.2-0.2
		c-0.5-0.1-1-0.1-1.5-0.2c-0.4-0.1-0.8-0.1-1.1-0.2c-0.5-0.1-0.9-0.1-1.4-0.2c-0.4-0.1-0.7-0.1-1.1-0.2c-0.4-0.1-0.9-0.1-1.3-0.2
		c-0.4-0.1-0.7-0.1-1.1-0.2c-0.4-0.1-0.8-0.1-1.2-0.2c-0.3-0.1-0.7-0.1-1-0.2c-0.4-0.1-0.8-0.2-1.1-0.2c-0.3-0.1-0.6-0.1-0.9-0.2
		c-0.4-0.1-0.7-0.2-1.1-0.2c-0.3-0.1-0.6-0.1-0.9-0.2c-0.3-0.1-0.7-0.2-1-0.3c-0.3-0.1-0.6-0.1-0.8-0.2c-0.3-0.1-0.6-0.2-0.9-0.3
		c-0.3-0.1-0.5-0.2-0.8-0.2c-0.3-0.1-0.6-0.2-0.9-0.3c-0.2-0.1-0.5-0.2-0.7-0.2c-0.3-0.1-0.5-0.2-0.8-0.3c-0.2-0.1-0.4-0.2-0.6-0.3
		c-0.3-0.1-0.5-0.2-0.8-0.4c-0.2-0.1-0.4-0.2-0.5-0.3c0,0-0.1,0-0.1-0.1l5-13.3l2.9-7.6c0,0,0,0,0,0l0.2,0c0.1,0,0.3-0.1,0.5-0.1
		l0.1,0c0.3-0.1,0.7-0.1,1-0.2l0.3,0c0.1,0,0.3-0.1,0.4-0.1c0.4-0.1,0.8-0.1,1.2-0.2l0.9-0.1c0.6-0.1,1.2-0.1,1.8-0.2
		c0.9-0.1,1.9-0.1,2.8-0.1c0.1,0,0.3,0,0.4,0c0.8,0,1.5,0,2.3,0c0.2,0,0.4,0,0.6,0c0.7,0,1.3,0.1,2,0.1c0.2,0,0.5,0.1,0.7,0.1
		c0.6,0.1,1.2,0.1,1.7,0.2c0.3,0,0.5,0.1,0.8,0.2c0.5,0.1,1,0.2,1.5,0.3c0.3,0.1,0.5,0.2,0.8,0.2c0.5,0.1,0.9,0.3,1.4,0.4
		c0.3,0.1,0.6,0.2,0.8,0.3c0.4,0.2,0.8,0.3,1.2,0.5c0.3,0.1,0.6,0.3,0.8,0.4c0.4,0.2,0.8,0.3,1.1,0.5c0.3,0.1,0.5,0.3,0.8,0.5
		c0.3,0.2,0.7,0.4,1,0.6c0.3,0.2,0.5,0.4,0.8,0.5c0.3,0.2,0.6,0.4,0.9,0.6c0.3,0.2,0.5,0.4,0.7,0.6c0.3,0.2,0.5,0.5,0.8,0.7
		c0.2,0.2,0.5,0.5,0.7,0.7c0.2,0.3,0.5,0.5,0.7,0.8c0.2,0.2,0.4,0.5,0.6,0.8c0.2,0.3,0.4,0.5,0.6,0.8c0.2,0.3,0.4,0.5,0.5,0.8
		c0.2,0.3,0.4,0.6,0.6,0.9c0.2,0.3,0.3,0.6,0.5,0.9c0.2,0.3,0.3,0.6,0.5,1c0.1,0.3,0.3,0.6,0.4,0.9c0.1,0.3,0.2,0.5,0.3,0.8
		l-1.3,3.5l-4,10.8c-1.1-0.2-2.2-0.3-3.3-0.5l-0.5-0.1C161.7,112,160.6,111.8,159.6,111.7z M124.5,102.3c-0.2-0.2-0.4-0.5-0.6-0.7
		c0,0,0-0.1-0.1-0.1c-0.2-0.2-0.3-0.5-0.5-0.7c-0.1-0.1-0.1-0.2-0.2-0.3c-0.1-0.2-0.2-0.4-0.3-0.6c0-0.1-0.1-0.2-0.1-0.3
		c-0.1-0.2-0.2-0.4-0.2-0.6c0-0.1-0.1-0.2-0.1-0.3c-0.1-0.3-0.2-0.6-0.2-1c-0.3-1.7-0.2-3.3,0.4-4.8c0.1-0.2,0.2-0.5,0.3-0.7
		c0,0,0,0,0,0l0.1-0.2c0,0,0,0,0,0c0.1-0.2,0.2-0.3,0.3-0.5c0,0,0-0.1,0.1-0.1l0.1-0.2c0.2-0.2,0.3-0.4,0.5-0.7l0.1-0.1
		c0.2-0.2,0.4-0.5,0.7-0.7l0,0c0,0,0,0,0,0l0.1-0.1l0,0l0.1-0.1c0.2-0.2,0.4-0.4,0.6-0.5l0.3-0.2c0,0,0,0,0,0
		c0.2-0.2,0.4-0.3,0.6-0.5c0,0,0.1-0.1,0.1-0.1l0,0c0,0,0.1-0.1,0.1-0.1l0,0l0.1-0.1c0,0,0,0,0,0c0,0,0,0,0,0
		c0.3-0.2,0.6-0.4,0.9-0.6c0,0,0,0,0.1,0l0.2-0.1c0.3-0.2,0.5-0.3,0.8-0.4c0,0,0,0,0.1,0l0.3-0.2c0.3-0.1,0.6-0.3,0.9-0.4l0.3-0.1
		l0,0c0,0,0,0,0,0c0,0,0.1,0,0.1,0c0.4-0.2,0.7-0.3,1.1-0.4l0,0c0,0,0.1,0,0.1,0l0.1,0l-0.2-0.5l0.2,0.4c0.2-0.1,0.5-0.2,0.7-0.2
		l-6.8,18.3c-0.1-0.1-0.1-0.1-0.2-0.2c-0.1-0.1-0.2-0.2-0.3-0.3c-0.2-0.2-0.3-0.3-0.5-0.5C124.6,102.4,124.5,102.3,124.5,102.3z
		 M138.1,54.4c39-2.7,66.7,12.1,74.6,39.7l-38.3,2.7c-0.1-0.2-0.2-0.4-0.3-0.6c-0.1-0.3-0.3-0.7-0.5-1c-0.2-0.4-0.4-0.7-0.5-1.1
		c-0.2-0.3-0.3-0.6-0.5-1c-0.2-0.3-0.4-0.7-0.6-1c-0.2-0.3-0.4-0.6-0.6-0.9c-0.2-0.3-0.5-0.6-0.7-0.9c-0.2-0.3-0.4-0.6-0.7-0.8
		c-0.3-0.3-0.5-0.6-0.8-0.9c-0.2-0.3-0.5-0.5-0.8-0.8c-0.3-0.3-0.6-0.5-0.9-0.8c-0.3-0.2-0.5-0.5-0.8-0.7c-0.3-0.2-0.6-0.5-1-0.7
		c-0.3-0.2-0.6-0.4-0.9-0.6c-0.3-0.2-0.7-0.4-1-0.6c-0.3-0.2-0.6-0.4-1-0.6c-0.4-0.2-0.7-0.4-1.1-0.5c-0.3-0.2-0.7-0.3-1-0.5
		c-0.4-0.2-0.8-0.3-1.2-0.5c-0.4-0.1-0.7-0.3-1.1-0.4c-0.4-0.1-0.8-0.3-1.3-0.4c-0.4-0.1-0.8-0.2-1.2-0.3c-0.4-0.1-0.9-0.2-1.3-0.3
		c-0.4-0.1-0.8-0.2-1.2-0.2c-0.5-0.1-1-0.1-1.5-0.2c-0.4-0.1-0.8-0.1-1.2-0.2c-0.5-0.1-1.1-0.1-1.6-0.1c-0.4,0-0.8-0.1-1.2-0.1
		c-0.6,0-1.3,0-1.9,0c-0.3,0-0.6,0-0.9,0c-1,0-2,0.1-3,0.1c-0.7,0-1.3,0.1-2,0.2c0,0-0.1,0-0.1,0l-0.3,0c-0.1,0-0.3,0-0.4,0.1
		l-0.1,0c-0.4,0.1-0.8,0.1-1.2,0.2c0,0,0,0,0,0c0,0,0,0-0.1,0l-0.2,0c-0.5,0.1-1.1,0.2-1.7,0.3l-0.3,0.1c-0.2,0-0.4,0.1-0.6,0.1
		c-0.2,0-0.5,0.1-0.7,0.2c0,0,0,0,0,0c0,0,0,0-0.1,0c0,0,0,0,0,0l0,0c-0.1,0-0.2,0-0.2,0l-0.3,0.1c-0.5,0.1-0.9,0.2-1.4,0.4
		l-0.3,0.1c0,0-0.1,0-0.1,0c-0.4,0.1-0.9,0.3-1.3,0.4c0,0,0,0,0,0c0,0-0.1,0-0.1,0c0,0-0.1,0-0.1,0l-0.1,0.1
		c-0.4,0.2-0.8,0.3-1.2,0.5l0,0c0,0,0,0,0,0c0,0-0.1,0-0.1,0l0,0l-0.1,0c0,0-0.1,0-0.1,0.1l0,0c-0.3,0.2-0.7,0.3-1,0.5l0,0
		c0,0-0.1,0-0.1,0l-0.3,0.1c0,0,0,0,0,0l0,0c-0.3,0.2-0.7,0.3-1,0.5l0,0c0,0-0.1,0-0.1,0.1c0,0-0.1,0.1-0.1,0.1
		c-0.4,0.2-0.8,0.5-1.1,0.7c0,0-0.1,0-0.1,0.1l-0.2,0.1c-0.3,0.3-0.7,0.5-1,0.8c-0.3,0.3-0.6,0.6-1,0.9l-0.2,0.2c0,0,0,0,0,0
		c0,0,0,0,0,0c-0.2,0.2-0.5,0.5-0.7,0.8c0,0-0.1,0.1-0.1,0.1l0,0.1c0,0,0,0,0,0c-0.1,0.1-0.1,0.2-0.2,0.2c-0.2,0.2-0.3,0.4-0.5,0.7
		c0,0,0,0,0,0l0,0l-0.2,0.2c0,0,0,0,0,0.1c0,0,0,0,0,0c-0.1,0.2-0.3,0.5-0.5,0.8c0,0.1-0.1,0.1-0.1,0.1l-0.1,0.2
		c-0.2,0.3-0.3,0.6-0.4,1c-0.8,2-1,4.2-0.5,6.5c0.8,3.8,2.8,6.7,6.3,8.9c6.8,4.2,18.7,5.7,36.8,8l0.5,0.1c1.5,0.2,3,0.4,4.5,0.6
		c2.9,0.4,5.9,0.9,9,1.4c9.2,1.6,18.9,3.9,27.4,7.6c0,0,0,0,0,0c15.8,6.9,24.7,17.5,27.8,33.3v0c1.7,8.4,1.1,16.1-1.8,23l-0.1,0.4
		c-0.1,0.2-0.1,0.3-0.2,0.5l-0.4,0.8c-0.1,0.2-0.2,0.5-0.3,0.7l-0.3,0.5c-0.3,0.5-0.5,1-0.8,1.5c-0.1,0.2-0.2,0.4-0.3,0.6
		c-0.3,0.6-0.7,1.1-1.1,1.7l-0.1,0.2c0,0,0,0,0,0c-0.4,0.6-0.8,1.1-1.2,1.6c0,0-0.1,0.1-0.1,0.1l-0.3,0.4l0,0l-0.1,0.1
		c-0.4,0.4-0.7,0.9-1.1,1.3l-0.4,0.5c-0.5,0.6-1,1.1-1.6,1.7c-0.5,0.5-1.1,1-1.7,1.5l-0.5,0.4c-0.4,0.4-0.9,0.8-1.4,1.1l-0.5,0.4
		c-0.4,0.3-0.9,0.7-1.3,1l-0.8,0.6l0,0c-0.6,0.4-1.2,0.8-1.8,1.2l-0.6,0.4c-0.5,0.3-1.1,0.7-1.7,1l-0.6,0.3
		c-0.7,0.4-1.5,0.8-2.3,1.2l-0.4,0.2l0,0c-0.6,0.3-1.3,0.6-1.9,0.9L205,204l0,0l-0.2,0.1l0,0c-0.6,0.3-1.3,0.6-2,0.8l-1.4,0.5
		c-0.6,0.2-1.1,0.4-1.7,0.6l-3.5,1.1c-0.8,0.2-1.5,0.4-2.3,0.7l-0.5,0.1c-0.9,0.2-1.9,0.5-2.8,0.7l-0.8,0.2
		c-0.7,0.2-1.5,0.3-2.2,0.5l-0.5,0.1l-0.4,0.1c-0.9,0.2-1.8,0.3-2.7,0.5l-1.2,0.2c-0.7,0.1-1.4,0.2-2.2,0.3c0,0,0,0-0.1,0l-0.9,0.1
		c0,0,0,0,0,0c-0.8,0.1-1.6,0.2-2.3,0.3l-1,0.1c-1.1,0.1-2.1,0.2-3.2,0.3c-1.7,0.1-3.4,0.2-5.1,0.3c-0.5,0-1,0-1.5,0
		c-1.2,0-2.5,0.1-3.7,0.1c-0.5,0-1,0-1.5,0c-0.6,0-1.1,0-1.7,0c-0.7,0-1.4,0-2.1,0c-0.6,0-1.2,0-1.7-0.1c-0.7,0-1.3-0.1-2-0.1
		c-0.6,0-1.2-0.1-1.7-0.1c-0.6,0-1.3-0.1-1.9-0.2c-0.6-0.1-1.2-0.1-1.7-0.2c-0.6-0.1-1.2-0.1-1.8-0.2c-0.6-0.1-1.1-0.1-1.7-0.2
		c-0.6-0.1-1.2-0.2-1.8-0.3c-0.6-0.1-1.1-0.2-1.7-0.3c-0.6-0.1-1.1-0.2-1.7-0.3c-0.5-0.1-1.1-0.2-1.6-0.3c-0.6-0.1-1.1-0.2-1.7-0.4
		c-1-0.2-1.9-0.4-2.9-0.7c-0.6-0.1-1.1-0.3-1.7-0.4c-0.5-0.1-1-0.3-1.6-0.5c-0.5-0.1-1-0.3-1.5-0.4c-0.5-0.2-1-0.3-1.5-0.5
		c-0.5-0.2-0.9-0.3-1.4-0.5c-0.5-0.2-1-0.4-1.5-0.6c-0.5-0.2-0.9-0.3-1.4-0.5c-0.5-0.2-1-0.4-1.4-0.6c-0.4-0.2-0.9-0.4-1.3-0.6
		c-0.5-0.2-0.9-0.4-1.4-0.6c-0.4-0.2-0.9-0.4-1.3-0.6c-0.5-0.2-0.9-0.5-1.3-0.7c-0.4-0.2-0.8-0.4-1.2-0.7c-0.4-0.2-0.9-0.5-1.3-0.7
		c-0.4-0.2-0.8-0.5-1.2-0.7c-0.4-0.3-0.8-0.5-1.2-0.8c-0.4-0.3-0.8-0.5-1.2-0.8c-0.4-0.3-0.8-0.5-1.1-0.8c-0.4-0.3-0.8-0.6-1.2-0.9
		c-0.3-0.3-0.7-0.5-1-0.8c-0.5-0.4-0.9-0.8-1.3-1.1c-0.4-0.4-0.8-0.7-1.2-1.1c-0.5-0.5-1-0.9-1.5-1.4c-0.3-0.3-0.5-0.5-0.8-0.8
		c-0.4-0.4-0.7-0.8-1.1-1.1c-0.3-0.3-0.5-0.6-0.8-0.9c-0.3-0.4-0.7-0.8-1-1.1c-0.3-0.3-0.5-0.6-0.8-1c-0.3-0.4-0.6-0.8-0.9-1.2
		c-0.2-0.3-0.5-0.7-0.7-1c-0.3-0.4-0.6-0.8-0.8-1.2c-0.2-0.3-0.4-0.7-0.7-1c-0.3-0.4-0.5-0.9-0.8-1.3c-0.2-0.3-0.4-0.7-0.6-1
		c-0.2-0.4-0.5-0.9-0.7-1.4c-0.2-0.4-0.4-0.7-0.5-1.1c-0.2-0.5-0.5-1-0.7-1.4c-0.2-0.4-0.3-0.7-0.5-1.1c-0.2-0.5-0.4-1-0.6-1.6
		c-0.1-0.3-0.3-0.7-0.4-1c-0.2-0.6-0.4-1.2-0.6-1.8c-0.1-0.3-0.2-0.6-0.3-0.8c-0.3-0.9-0.5-1.8-0.8-2.8l0,0l39.5-2.8
		c0.3,0.9,0.7,1.7,1,2.6c0.1,0.3,0.2,0.5,0.4,0.8c0.3,0.6,0.5,1.1,0.8,1.6c0.2,0.3,0.3,0.5,0.5,0.8c0.3,0.5,0.6,0.9,0.9,1.4
		c0.2,0.3,0.4,0.5,0.6,0.8c0.3,0.4,0.6,0.8,0.9,1.2c0.2,0.2,0.4,0.5,0.6,0.7c0.3,0.4,0.7,0.8,1.1,1.1c0.2,0.2,0.4,0.4,0.7,0.7
		c0.4,0.4,0.8,0.7,1.2,1c0.2,0.2,0.5,0.4,0.7,0.6c0.4,0.3,0.9,0.7,1.4,1c0.2,0.2,0.5,0.3,0.7,0.5c0.5,0.3,1.1,0.6,1.6,0.9
		c0.2,0.1,0.4,0.2,0.6,0.3c0.8,0.4,1.5,0.7,2.3,1c0,0,0,0,0,0c0.9,0.3,1.7,0.6,2.7,0.9c0.1,0,0.2,0,0.3,0.1c0.8,0.2,1.6,0.4,2.5,0.6
		c0.3,0.1,0.6,0.1,0.8,0.2c0.7,0.1,1.4,0.3,2.1,0.4c0.4,0.1,0.7,0.1,1.1,0.1c0.7,0.1,1.3,0.2,2,0.2c0.4,0,0.8,0.1,1.3,0.1
		c0.7,0,1.3,0.1,2,0.1c0.5,0,0.9,0,1.4,0c0.3,0,0.6,0,0.9,0c0.4,0,0.9,0,1.4,0c0.3,0,0.7,0,1,0c1.1,0,2.2-0.1,3.4-0.2
		c0,0,0.1,0,0.1,0c10.3-0.7,18-3.6,22.3-8.1c1.4-1.5,2.4-3.2,3-5l0.1-0.2c0.1-0.3,0.2-0.6,0.2-1l0-0.2c0-0.3,0.1-0.5,0.1-0.8l0-0.2
		c0,0,0-0.1,0-0.1c0-0.2,0-0.4,0.1-0.7l0-0.4c0-0.2,0-0.4,0-0.7c0-0.1,0-0.3,0-0.4c0-0.2,0-0.5-0.1-0.7l0-0.3c0-0.4-0.1-0.7-0.2-1.1
		c-2.6-12.8-16.6-14.9-39.8-18.2l-2.6-0.4c-32.8-4.4-62.8-10.9-68.8-41.2c-0.2-1-0.4-2-0.5-3c0-0.2,0-0.4-0.1-0.5l0-0.4c0,0,0,0,0,0
		l0-0.3c-0.1-0.6-0.1-1.1-0.2-1.7c0-0.2,0-0.4,0-0.7l0-0.4c0,0,0,0,0,0c0,0,0-0.1,0-0.1l0-0.4c0-0.4,0-0.9-0.1-1.3
		c0-0.3,0-0.5,0-0.7l0-0.4c0,0,0,0,0,0l0-0.3c0-0.4,0-0.8,0-1.2c0,0,0,0,0,0c0-0.3,0-0.5,0.1-0.8l0-0.4c0,0,0,0,0,0l0-0.3
		c0-0.4,0.1-0.8,0.1-1.2c0-0.3,0.1-0.5,0.1-0.8l0.1-0.4c0,0,0,0,0,0l0-0.3c0.1-0.4,0.1-0.7,0.2-1.1c0,0,0,0,0,0
		c0.1-0.3,0.1-0.5,0.2-0.8l0.1-0.3c0,0,0,0,0,0l0-0.1c0.1-0.4,0.2-0.8,0.3-1.2c0,0,0,0,0,0c0.1-0.3,0.2-0.6,0.3-0.8l0.1-0.3
		c0.1-0.2,0.1-0.4,0.2-0.6c0.1-0.2,0.1-0.4,0.2-0.6v0C88.4,66.8,108.2,56.5,138.1,54.4z M68.5,138.9c-1.6-8-1.2-15.2,1.1-21.5
		l7.7-20.7c0,0.2,0,0.4,0,0.7l0,0.8c0,0.3,0,0.5,0,0.8c0,0.6,0.1,1.2,0.2,1.8l0.1,0.6c0,0.2,0,0.4,0.1,0.6c0.1,1.1,0.3,2.1,0.5,3.2
		c1,5,2.6,9.4,4.7,13.3c11.5,20.9,38,26.4,66.6,30.3l2.6,0.4c22.7,3.3,35.1,5,37.3,15.8c0.1,0.3,0.1,0.6,0.1,0.9l0,0.3
		c0,0.2,0,0.4,0,0.6l0,0.3c0,0.2,0,0.3,0,0.5l0,0.3c0,0.2,0,0.3,0,0.5l0,0.3c0,0.2-0.1,0.4-0.1,0.6l0,0.2c-0.1,0.2-0.1,0.5-0.2,0.8
		c0,0,0,0.1,0,0.1c-1.9,6-10.4,10.1-22.6,10.9c-20.4,1.4-31.6-4.3-36.2-18.6c-0.1-0.2-0.1-0.3-0.2-0.4c0,0-0.1,0-0.1-0.1
		c-0.1-0.1-0.2-0.2-0.3-0.3c0,0-0.1,0-0.1-0.1c-0.1-0.1-0.2-0.1-0.3-0.1c-0.1,0-0.1,0-0.2,0c-0.1,0-0.2,0-0.2,0c0,0-0.1,0-0.1,0
		l-42.4,3c-0.2,0-0.3,0.1-0.5,0.1c0,0,0,0-0.1,0c-0.1,0.1-0.3,0.2-0.4,0.3c0,0,0,0,0,0C76.4,158.7,70.7,150.1,68.5,138.9z
		 M174.2,243.8l-0.6,0.1c-1.2,0.2-2.4,0.4-3.8,0.6l-0.7,0.1c-1.3,0.2-2.6,0.4-3.9,0.5l-0.6,0.1c-1.5,0.2-2.9,0.3-4.2,0.4
		c-22.4,1.6-41.9-1.6-56.5-9.3c-15-7.8-24.5-19.9-28.3-35.8l11-29.5c0,0,0,0.1,0,0.1c0.1,0.3,0.2,0.7,0.3,1c0.2,0.6,0.4,1.2,0.6,1.8
		c0.1,0.4,0.3,0.7,0.4,1.1c0.2,0.6,0.4,1.1,0.7,1.6c0.2,0.4,0.3,0.8,0.5,1.1c0.2,0.5,0.5,1,0.7,1.5c0.2,0.4,0.4,0.8,0.6,1.1
		c0.3,0.5,0.5,1,0.8,1.5c0.2,0.4,0.4,0.8,0.7,1.1c0.3,0.5,0.6,0.9,0.8,1.4c0.2,0.4,0.5,0.7,0.7,1.1c0.3,0.4,0.6,0.9,0.9,1.3
		c0.3,0.4,0.5,0.7,0.8,1.1c0.3,0.4,0.6,0.8,1,1.3c0.3,0.3,0.6,0.7,0.8,1c0.3,0.4,0.7,0.8,1.1,1.2c0.3,0.3,0.6,0.7,0.9,1
		c0.4,0.4,0.7,0.8,1.1,1.2c0.3,0.3,0.6,0.6,0.9,0.9c0.4,0.4,0.8,0.7,1.2,1.1c0.3,0.3,0.7,0.6,1,0.9c0.4,0.4,0.9,0.7,1.3,1.1
		c0.3,0.3,0.7,0.6,1,0.8c0.5,0.4,0.9,0.7,1.4,1c0.3,0.3,0.7,0.5,1,0.8c0.5,0.4,1,0.7,1.5,1c0.3,0.2,0.7,0.5,1,0.7
		c0.6,0.4,1.2,0.7,1.8,1.1c0.3,0.2,0.6,0.4,0.9,0.5c0.9,0.5,1.8,1,2.8,1.5c0.9,0.4,1.8,0.9,2.7,1.3c0.3,0.1,0.6,0.3,0.9,0.4
		c0.6,0.3,1.3,0.5,1.9,0.8c0.3,0.1,0.7,0.3,1,0.4c0.6,0.2,1.2,0.5,1.9,0.7c0.4,0.1,0.7,0.3,1.1,0.4c0.7,0.2,1.3,0.5,2,0.7
		c0.3,0.1,0.6,0.2,1,0.3c1,0.3,2,0.6,3,0.9c0,0,0,0,0,0c1,0.3,2.1,0.5,3.1,0.8c0.3,0.1,0.7,0.2,1,0.2c0.7,0.2,1.5,0.3,2.2,0.5
		c0.4,0.1,0.8,0.2,1.2,0.2c0.7,0.1,1.4,0.3,2.1,0.4c0.4,0.1,0.8,0.1,1.3,0.2c0.7,0.1,1.5,0.2,2.3,0.3c0.4,0.1,0.8,0.1,1.2,0.2
		c1.1,0.1,2.1,0.3,3.2,0.4c0.1,0,0.2,0,0.3,0c1.1,0.1,2.3,0.2,3.4,0.3c0.4,0,0.8,0,1.2,0.1c0.8,0,1.6,0.1,2.4,0.1c0.5,0,0.9,0,1.4,0
		c0.8,0,1.5,0,2.3,0.1c0.5,0,1,0,1.4,0c0.3,0,0.5,0,0.8,0c0.3,0,0.6,0,0.9,0c1.2,0,2.4,0,3.6-0.1c0.5,0,1,0,1.5,0
		c1.6-0.1,3.2-0.1,4.9-0.3c0,0,0.1,0,0.1,0c1.1-0.1,2.2-0.2,3.3-0.3l1-0.1c0,0,0,0,0,0l0.7-0.1c0.6-0.1,1.2-0.1,1.7-0.2l0.9-0.1
		c0,0,0.1,0,0.1,0c0.4-0.1,0.9-0.1,1.3-0.2l1-0.1c0.3,0,0.6-0.1,0.8-0.1l0.4-0.1c0,0,0.1,0,0.1,0c0.8-0.1,1.6-0.3,2.4-0.4l1.2-0.2
		c0.2,0,0.5-0.1,0.7-0.1l-3.8,10.1l-7.8,20.9C176.3,243.3,175.3,243.6,174.2,243.8z M217.4,214.2c-0.3,0.7-0.6,1.4-1,2.3l-0.2,0.5
		c-0.4,0.8-0.8,1.5-1.1,2.2l-0.2,0.3c-0.4,0.6-0.8,1.3-1.2,1.9l-0.3,0.4c-0.5,0.7-1,1.4-1.5,2l-0.3,0.4c-0.5,0.6-1,1.2-1.5,1.7
		l-0.3,0.3c-0.6,0.6-1.1,1.2-1.8,1.8l-0.4,0.4c-0.7,0.6-1.3,1.1-1.9,1.7c0,0-0.1,0.1-0.1,0.1c-0.6,0.5-1.3,1.1-2.1,1.7l-0.5,0.4
		c-0.8,0.6-1.6,1.1-2.4,1.6l-0.1,0.1c-0.7,0.5-1.5,0.9-2.3,1.4l-0.6,0.3c-0.9,0.5-1.7,0.9-2.6,1.3l-0.5,0.2
		c-0.8,0.4-1.6,0.8-2.4,1.1l-0.5,0.2c-0.9,0.4-1.9,0.8-2.8,1.1l-0.6,0.2c-0.9,0.3-1.8,0.6-2.7,1l-0.4,0.1c-1,0.3-2,0.6-3.1,0.9
		l-0.7,0.2c-0.2,0-0.3,0.1-0.5,0.1l6.4-17.1l5.1-13.8c0.6-0.2,1.2-0.3,1.8-0.5l0.5-0.1c0,0,0,0,0,0l0.9-0.3c0.5-0.1,0.9-0.3,1.4-0.4
		l0.9-0.3c0,0,0,0,0,0l0.3-0.1c0.2-0.1,0.4-0.1,0.6-0.2l1.2-0.4c0,0,0,0,0,0l0.1,0l0.5-0.2c0.4-0.1,0.8-0.3,1.2-0.4l0.6-0.2
		c0.3-0.1,0.6-0.2,0.9-0.3l0.6-0.2c0,0,0.1,0,0.1,0c0.5-0.2,1.1-0.4,1.6-0.6l1.1-0.5c0.6-0.3,1.3-0.6,1.9-0.9l0.6-0.3
		c0.8-0.4,1.6-0.8,2.4-1.2l0.6-0.3c0,0,0,0,0,0l0.1-0.1c0.1-0.1,0.2-0.1,0.4-0.2c0.1-0.1,0.3-0.1,0.4-0.2c0.3-0.2,0.6-0.3,0.9-0.5
		l0.7-0.4c0,0,0.2-0.1,0.2-0.1l0.1-0.1c0.5-0.3,1-0.7,1.5-1l0.3-0.2c0.1-0.1,0.3-0.2,0.4-0.3l0.8-0.6c0.3-0.2,0.6-0.4,0.9-0.6
		l0.8-0.6c0.2-0.2,0.4-0.3,0.6-0.5l0.6-0.5c0,0,0,0,0,0l0.5-0.4c0.6-0.5,1.2-1,1.8-1.6l0.1-0.1c0.5-0.5,1.1-1.1,1.6-1.6l0.2-0.2
		L217.4,214.2z"/>
</g>
<g id="Layer_3">
	<path class="st2" d="M238.4,151.2l-19.9-99.5c-0.1-0.7-0.8-1.3-1.6-1.2l-42.2,2.9c-0.1,0-0.1,0-0.2,0c0,0,0,0-0.1,0
		c-0.1,0-0.3,0.1-0.4,0.2c0,0-0.1,0-0.1,0.1c-0.1,0.1-0.2,0.2-0.3,0.2c0,0,0,0-0.1,0.1c0,0,0,0,0,0c-0.1,0.1-0.1,0.2-0.2,0.3
		c0,0,0,0,0,0l-12.8,34.3c-0.1,0.3-0.1,0.5-0.1,0.8l18.2,90.6c-2.3,0.6-4.9,1-7.6,1.2c-18.3,1.3-29.6-6.3-32.8-21.9L118.1,58.7
		c-0.1-0.7-0.8-1.3-1.6-1.2l-42.2,2.9c-0.1,0-0.1,0-0.2,0c0,0-0.1,0-0.1,0c-0.1,0-0.3,0.1-0.4,0.2c0,0-0.1,0-0.1,0.1
		c-0.1,0.1-0.2,0.2-0.3,0.2c0,0,0,0,0,0.1c0,0,0,0,0,0c-0.1,0.1-0.1,0.2-0.2,0.3c0,0,0,0,0,0L60.3,95.7c-0.1,0.3-0.1,0.5-0.1,0.8
		L80.1,196c7,34.8,33.2,53.5,74.3,53.5c3.3,0,6.7-0.1,10.2-0.4c1-0.1,1.9-0.1,2.9-0.2l0.9-0.1c0.6-0.1,1.3-0.1,1.9-0.2l1.1-0.1
		c0.6-0.1,1.1-0.1,1.7-0.2l1.1-0.1c0.5-0.1,1.1-0.1,1.6-0.2l1.1-0.2c0.5-0.1,1-0.2,1.5-0.3l1.1-0.2c0.5-0.1,1-0.2,1.5-0.3l1-0.2
		c0.5-0.1,1.1-0.2,1.6-0.3l1.1-0.2c0,0,0,0,0,0c0,0,0,0,0,0l0.4-0.1c1-0.2,2-0.5,3-0.8l0.7-0.2c1.1-0.3,2.1-0.6,3.2-1l0.6-0.2
		c0.9-0.3,1.8-0.6,2.7-1l0.5-0.2c0.9-0.4,1.9-0.8,2.9-1.2l0.6-0.3c0.9-0.4,1.7-0.8,2.5-1.2l0.3-0.1c0.8-0.4,1.7-0.9,2.6-1.4l0.6-0.3
		c1-0.6,1.7-1,2.5-1.6c0.7-0.5,1.4-1,2.2-1.6l0.5-0.4c0.8-0.6,1.5-1.2,2.1-1.7l0.3-0.2c0.6-0.5,1.2-1.1,1.8-1.6l0.4-0.4
		c0.6-0.6,1.2-1.3,1.8-1.9l0.3-0.4c0.5-0.6,1-1.2,1.4-1.8l0.3-0.4c0.5-0.7,1-1.4,1.5-2.1l0.3-0.5c0.4-0.7,0.8-1.3,1.2-2l0.2-0.3
		c0.4-0.7,0.8-1.5,1.1-2.3l0.2-0.5c0.4-0.9,0.7-1.7,1-2.4L237,182c0,0,0,0,0-0.1C240.2,173.2,240.7,162.8,238.4,151.2z M174.4,60.4
		l19,95c0.1,0.6,0.2,1.1,0.3,1.7l0.1,0.5c0.1,0.4,0.1,0.9,0.1,1.3l0,0.4c0,0.5,0.1,1,0.1,1.6c0,0,0,0,0,0l0,0.3c0,0.4,0,0.8,0,1.2
		l0,0.4c0,0.5-0.1,1-0.1,1.5c0,0,0,0,0,0c-0.1,0.5-0.1,0.9-0.2,1.4l-0.1,0.4c-0.1,0.4-0.2,0.7-0.3,1.1l-0.1,0.3
		c-0.1,0.4-0.3,0.9-0.4,1.3c-1.4,3.7-3.9,6.7-7.6,8.9c-0.5,0.3-1,0.6-1.6,0.8c-0.1,0.1-0.3,0.1-0.4,0.2c-0.5,0.2-1,0.4-1.5,0.6
		c-0.1,0-0.1,0.1-0.2,0.1l-18-89.9L174.4,60.4z M135.4,160.1c2.4,12.1,10.6,26.1,35.9,24.3c3.5-0.2,6.7-0.8,9.6-1.7
		c2.2-0.7,4.2-1.5,5.9-2.6c4.3-2.5,7.2-6,8.9-10.4c0.2-0.5,0.3-1,0.5-1.5l0.1-0.3c0.1-0.4,0.2-0.8,0.3-1.3l0.1-0.4
		c0.1-0.5,0.2-1.1,0.2-1.6c0,0,0,0,0,0c0,0,0,0,0,0c0-0.3,0-0.5,0.1-0.8c0-0.3,0.1-0.5,0.1-0.8l0-0.5c0-0.4,0-0.9,0-1.4l0-0.4
		c0-0.6,0-1.1-0.1-1.7l0-0.4c0-0.5-0.1-0.9-0.2-1.4l-0.1-0.5c-0.1-0.6-0.2-1.2-0.3-1.8l-19.7-98.5l39.2-2.7l19.7,98.2
		c2.4,11.9,1.7,22.3-2,30.9l-0.1,0.3c0,0,0,0,0,0l0,0c-0.3,0.6-0.6,1.2-0.9,1.8l-0.6,1.2c0,0.1-0.1,0.1-0.1,0.2
		c-0.2,0.4-0.4,0.7-0.6,1.1c0,0,0,0,0,0.1c0,0-0.1,0.1-0.1,0.1c-0.4,0.6-0.8,1.2-1.2,1.8l-0.4,0.5c-0.2,0.3-0.4,0.5-0.6,0.8
		l-0.3,0.3c-0.2,0.2-0.3,0.4-0.4,0.6c0,0,0,0-0.1,0.1c0,0,0,0,0,0c0,0-0.1,0.1-0.1,0.1c-0.1,0.2-0.3,0.3-0.4,0.5l-0.3,0.4
		c-0.2,0.2-0.4,0.5-0.6,0.7l-0.4,0.5l0,0c-0.5,0.5-1,1-1.5,1.5l-0.1,0.1l-0.1,0.1c-0.3,0.3-0.7,0.6-1,0.9c0,0-0.1,0.1-0.1,0.1
		l-1.1,0.9c0,0,0,0,0,0c-0.5,0.4-1.1,0.9-1.6,1.3l-0.3,0.2c-0.7,0.5-1.3,1-2.1,1.4l-0.4,0.2l-0.2,0.1c-0.6,0.4-1.2,0.8-1.9,1.1l0,0
		l-0.4,0.3c-0.6,0.3-1.1,0.6-1.7,0.9c-0.2,0.1-0.4,0.2-0.7,0.3l-0.2,0.1l-0.3,0.2c-0.1,0-0.2,0.1-0.2,0.1c-0.6,0.3-1.2,0.6-1.8,0.9
		l-0.6,0.3c-0.9,0.4-1.7,0.7-2.6,1.1l-0.5,0.2l0,0l-0.1,0c-0.8,0.3-1.5,0.6-2.3,0.8l-0.7,0.2c-0.9,0.3-1.8,0.6-2.7,0.8
		c-0.1,0-0.1,0-0.2,0.1l-0.2,0c0,0,0,0,0,0l-0.4,0.1l0,0c-0.2,0-0.3,0.1-0.5,0.1c-0.7,0.2-1.4,0.4-2.1,0.5c-0.1,0-0.1,0-0.2,0
		L197,209l0,0l-0.2,0l0,0c-1,0.2-2,0.5-3,0.7l-0.7,0.1c0,0,0,0,0,0c-0.9,0.2-1.9,0.4-2.8,0.5l-1.4,0.2c-0.9,0.1-1.8,0.3-2.8,0.4
		l-0.7,0.1l0,0c-0.8,0.1-1.7,0.2-2.5,0.3l-2.2,0.2c-1.1,0.1-2.3,0.2-3.5,0.3c-23.1,1.6-41.8-2.1-55.7-11
		c-13.5-8.6-22.1-22-25.6-39.7L76.3,63.3l39.2-2.7L135.4,160.1z M181.2,243.9l-1,0.2c-0.5,0.1-1,0.2-1.5,0.3l-1,0.2
		c-0.5,0.1-1,0.2-1.5,0.2l-1.1,0.2c-0.5,0.1-1,0.1-1.5,0.2l-1.1,0.1c-0.5,0.1-1.1,0.1-1.6,0.2l-1,0.1c-0.6,0.1-1.2,0.1-1.9,0.2
		l-0.9,0.1c-0.9,0.1-1.9,0.2-2.8,0.2c-23.1,1.6-41.8-2.1-55.7-11c-13.5-8.6-22.1-22-25.6-39.7L63.2,96.4l10.8-29l18.9,94.3
		c0.2,1.1,0.5,2.2,0.7,3.3c0.1,0.4,0.2,0.7,0.3,1.1c0.2,0.7,0.4,1.5,0.6,2.2c0.1,0.4,0.3,0.8,0.4,1.2c0.2,0.6,0.4,1.3,0.6,1.9
		c0.1,0.4,0.3,0.8,0.5,1.3c0.2,0.6,0.4,1.2,0.7,1.8c0.2,0.4,0.3,0.8,0.5,1.3c0.2,0.6,0.5,1.1,0.7,1.7c0.2,0.4,0.4,0.8,0.6,1.2
		c0.3,0.5,0.5,1.1,0.8,1.6c0.2,0.4,0.4,0.8,0.6,1.2c0.3,0.5,0.6,1,0.9,1.5c0.2,0.4,0.4,0.8,0.7,1.1c0.3,0.5,0.6,1,0.9,1.5
		c0.2,0.4,0.5,0.7,0.7,1.1c0.3,0.5,0.7,1,1,1.5c0.2,0.3,0.5,0.7,0.7,1c0.4,0.5,0.8,1,1.1,1.5c0.2,0.3,0.5,0.6,0.7,0.9
		c0.4,0.5,0.9,1,1.3,1.5c0.2,0.2,0.4,0.5,0.7,0.7c0.6,0.6,1.1,1.2,1.7,1.8c0.1,0.1,0.2,0.2,0.3,0.3c0.7,0.7,1.5,1.4,2.2,2
		c0.2,0.1,0.3,0.3,0.5,0.4c0.6,0.5,1.2,1,1.8,1.5c0.3,0.2,0.6,0.4,0.9,0.6c0.5,0.4,1,0.8,1.6,1.2c0.3,0.2,0.7,0.5,1,0.7
		c0.5,0.3,1,0.7,1.5,1c0.4,0.2,0.7,0.5,1.1,0.7c0.5,0.3,1,0.6,1.5,0.9c0.4,0.2,0.8,0.4,1.2,0.7c0.5,0.3,1,0.6,1.6,0.8
		c0.4,0.2,0.8,0.4,1.2,0.6c0.5,0.3,1.1,0.5,1.6,0.7c0.4,0.2,0.9,0.4,1.3,0.6c0.5,0.2,1.1,0.5,1.7,0.7c0.4,0.2,0.9,0.4,1.3,0.5
		c0.6,0.2,1.1,0.4,1.7,0.6c0.5,0.2,0.9,0.3,1.4,0.5c0.6,0.2,1.2,0.4,1.8,0.6c0.5,0.1,0.9,0.3,1.4,0.4c0.6,0.2,1.3,0.3,1.9,0.5
		c0.5,0.1,0.9,0.2,1.4,0.4c0.7,0.2,1.4,0.3,2.1,0.5c0.4,0.1,0.8,0.2,1.3,0.3c1.1,0.2,2.3,0.4,3.5,0.6c0.3,0,0.6,0.1,0.9,0.1
		c0.9,0.1,1.8,0.3,2.7,0.4c0.5,0.1,1,0.1,1.5,0.2c0.7,0.1,1.5,0.2,2.2,0.2c0.5,0,1.1,0.1,1.7,0.1c0.7,0.1,1.4,0.1,2.1,0.1
		c0.6,0,1.2,0.1,1.8,0.1c0.7,0,1.4,0.1,2.1,0.1c0.6,0,1.2,0,1.8,0c0.4,0,0.9,0,1.3,0c0.2,0,0.5,0,0.7,0c1.1,0,2.2,0,3.3-0.1
		c0.5,0,1,0,1.4,0c1.6-0.1,3.2-0.1,4.8-0.3c1-0.1,1.9-0.1,2.9-0.2l0.7-0.1c0.1,0,0.2,0,0.4,0l1-0.1c0.3,0,0.6-0.1,0.9-0.1l0.9-0.1
		c0.6-0.1,1.1-0.1,1.7-0.2l0,0l0.3,0c0.1,0,0.2,0,0.4-0.1l0.4-0.1c0.5-0.1,1.1-0.1,1.6-0.2l0.8-0.1c0.1,0,0.3,0,0.4-0.1l0.9-0.2
		c0,0,0.1,0,0.1,0l0.3-0.1c0.4-0.1,0.7-0.1,1.1-0.2c0.5-0.1,1-0.2,1.5-0.3l0.5-0.1c0.1,0,0.1,0,0.2,0l0.2,0l-11.6,31l-0.2,0.1
		C182.3,243.7,181.8,243.8,181.2,243.9z M221.3,215.3c-0.3,0.7-0.5,1.4-0.9,2.2l-0.2,0.5c-0.4,0.8-0.7,1.5-1.1,2.1l-0.1,0.3
		c-0.3,0.6-0.7,1.2-1.1,1.9l-0.3,0.4c-0.4,0.7-0.9,1.3-1.3,1.9L216,225c-0.4,0.6-0.9,1.1-1.3,1.6l-0.3,0.4c-0.5,0.6-1.1,1.2-1.6,1.8
		l-0.4,0.4c-0.5,0.5-1.1,1-1.6,1.5l-0.2,0.2c-0.6,0.5-1.2,1-2,1.6l-0.5,0.4c-0.8,0.6-1.5,1.1-2.2,1.5c-0.7,0.4-1.4,0.9-2.3,1.4
		l-0.6,0.3c-0.9,0.5-1.7,0.9-2.4,1.3l-0.3,0.1c-0.8,0.4-1.6,0.8-2.4,1.1l-0.6,0.3c-0.9,0.4-1.8,0.8-2.7,1.1l-0.5,0.2
		c-0.8,0.3-1.7,0.6-2.6,0.9l-0.6,0.2c-1,0.3-2,0.6-3.1,0.9l-0.7,0.2c-0.2,0-0.3,0.1-0.5,0.1l11.5-30.9l0.2-0.1
		c0.8-0.2,1.6-0.4,2.4-0.6l0.9-0.3c1-0.3,2-0.6,3-0.9l0.1,0c0,0,0,0,0,0l0.7-0.2c0.8-0.3,1.6-0.6,2.4-0.9l0,0l0.6-0.2
		c0.9-0.4,1.8-0.7,2.7-1.1l0.8-0.4c0.6-0.3,1.2-0.5,1.8-0.8c0.1,0,0.1-0.1,0.2-0.1l0.4-0.2l0.4-0.2c0.7-0.4,1.4-0.8,2.1-1.1
		c0,0,0.1,0,0.1,0l0.3-0.2l0,0c0,0,0.1-0.1,0.1-0.1c0,0,0,0,0,0l0.5-0.3c0.5-0.3,1-0.6,1.5-0.9l0.6-0.4c0,0,0.1,0,0.1-0.1l0.4-0.2
		c0.1-0.1,0.2-0.2,0.4-0.2c0.5-0.3,0.9-0.6,1.4-1l1-0.8c0.4-0.3,0.7-0.6,1.1-0.9l0,0l0.5-0.4c0.2-0.2,0.5-0.4,0.7-0.6l0.1-0.1
		c0,0,0,0,0,0c0.4-0.3,0.8-0.7,1.1-1l1-1c0.3-0.3,0.5-0.5,0.8-0.8l0.4-0.4L221.3,215.3z"/>
</g>
<g id="Layer_4" class="st0">
</g>
<g id="Layer_5" class="st0">
	<g class="st3">
		<path class="st4" d="M127.9,91c0.1-0.1,0.1-0.2,0.2-0.3C128,90.8,128,90.9,127.9,91z"/>
		<path class="st4" d="M132.4,86.7c0.1-0.1,0.1-0.1,0.2-0.2C132.6,86.6,132.5,86.7,132.4,86.7z"/>
		<path class="st4" d="M124.8,95.4c-0.1,0.1-0.1,0.2-0.2,0.3c-0.1,0.1-0.1,0.3-0.2,0.4c-0.1,0.2-0.2,0.4-0.3,0.5
			C124.3,96.2,124.5,95.8,124.8,95.4z"/>
		<path class="st4" d="M126,93.4c0.1-0.2,0.2-0.3,0.4-0.5C126.3,93,126.1,93.2,126,93.4z"/>
		<path class="st4" d="M138,83.5c0,0,0.1,0,0.1-0.1C138.1,83.5,138.1,83.5,138,83.5z"/>
		<path class="st4" d="M123.4,98.1c0,0,0,0.1-0.1,0.1c-0.1,0.2-0.2,0.4-0.3,0.6c-0.1,0.2-0.1,0.4-0.2,0.6
			C123,99,123.2,98.6,123.4,98.1z"/>
		<path class="st4" d="M148.3,80.9c0.3,0,0.6-0.1,1-0.1C148.9,80.8,148.6,80.9,148.3,80.9z"/>
		<path class="st4" d="M122.2,101c-0.1,0.2-0.1,0.3-0.2,0.5c-0.1,0.2-0.1,0.3-0.2,0.5c0,0.1-0.1,0.3-0.1,0.4
			C121.9,102,122.1,101.5,122.2,101z"/>
		<path class="st4" d="M83.2,101c0.1-0.6,0.3-1.3,0.4-1.9C83.5,99.7,83.4,100.3,83.2,101z"/>
		<path class="st4" d="M121.9,102c0.1-0.2,0.1-0.3,0.2-0.5C122,101.7,122,101.8,121.9,102z"/>
		<path class="st4" d="M124.4,96.1c0.1-0.1,0.1-0.3,0.2-0.4C124.5,95.8,124.5,95.9,124.4,96.1z"/>
		<path class="st4" d="M123.1,98.8c0.1-0.2,0.2-0.4,0.3-0.6C123.2,98.5,123.1,98.7,123.1,98.8z"/>
		<path class="st4" d="M127.2,137.4c-0.3,0.1-0.5,0.2-0.8,0.2C126.7,137.5,126.9,137.4,127.2,137.4z"/>
		<path class="st4" d="M126.4,92.8C126.4,92.9,126.4,92.9,126.4,92.8c-0.1,0.2-0.3,0.4-0.4,0.5c-0.1,0.2-0.2,0.4-0.4,0.6
			C125.9,93.6,126.1,93.2,126.4,92.8z"/>
		<path class="st4" d="M130.5,88.3c-0.2,0.1-0.3,0.3-0.5,0.4c0.1-0.1,0.2-0.2,0.3-0.3C130.3,88.4,130.4,88.4,130.5,88.3z"/>
		<path class="st4" d="M130.3,88.5c-0.1,0.1-0.2,0.2-0.3,0.3c-0.2,0.2-0.4,0.4-0.5,0.5C129.7,89,130,88.8,130.3,88.5z"/>
		<path class="st4" d="M138.6,83.3c-0.2,0.1-0.3,0.1-0.5,0.2c-0.1,0-0.1,0-0.1,0.1c0,0-0.1,0-0.1,0.1
			C138.1,83.5,138.4,83.4,138.6,83.3z"/>
		<path class="st4" d="M135.1,85c0,0-0.1,0-0.1,0.1c-0.2,0.1-0.4,0.2-0.6,0.4C134.6,85.3,134.8,85.1,135.1,85z"/>
		<path class="st4" d="M135.4,84.8c0.1,0,0.1-0.1,0.2-0.1c-0.2,0.1-0.4,0.2-0.6,0.3c0,0,0.1,0,0.1-0.1
			C135.2,85,135.3,84.9,135.4,84.8z"/>
		<path class="st4" d="M141.6,82.3c-0.2,0.1-0.4,0.1-0.6,0.2c-0.1,0-0.1,0-0.2,0.1C141.1,82.4,141.3,82.3,141.6,82.3z"/>
		<path class="st4" d="M133.1,136.2c-1.2,0.1-2.4,0.3-3.5,0.5C130.7,136.5,131.9,136.4,133.1,136.2z"/>
		<path class="st4" d="M82.6,104.3c0.1-0.6,0.2-1.3,0.3-1.9C82.8,103,82.7,103.7,82.6,104.3z"/>
		<path class="st4" d="M134.1,136.1c1.2-0.1,2.5-0.2,3.8-0.2c-0.9,0-1.9,0.1-2.8,0.1C134.7,136.1,134.4,136.1,134.1,136.1z"/>
		<path class="st4" d="M141.7,82.2c-0.2,0.1-0.5,0.1-0.7,0.2c0.2-0.1,0.4-0.1,0.6-0.2C141.6,82.2,141.6,82.2,141.7,82.2z"/>
		<path class="st4" d="M128.3,90.5c-0.1,0.1-0.1,0.1-0.2,0.2c-0.1,0.1-0.1,0.2-0.2,0.3c-0.2,0.2-0.3,0.4-0.5,0.6
			C127.7,91.2,128,90.8,128.3,90.5z"/>
		<path class="st4" d="M194.4,181.2c-0.9,0.7-1.9,1.4-2.9,2.1C192.5,182.7,193.4,182,194.4,181.2z"/>
		<path class="st4" d="M160.5,244.9c-1.3,0.3-2.6,0.5-3.9,0.6C157.9,245.4,159.2,245.2,160.5,244.9z"/>
		<path class="st4" d="M169.6,242.1c-0.5,0.2-0.9,0.4-1.4,0.5C168.7,242.5,169.1,242.3,169.6,242.1z"/>
		<path class="st4" d="M165.7,243.5c-0.4,0.1-0.8,0.3-1.2,0.4C164.9,243.8,165.3,243.7,165.7,243.5z"/>
		<path class="st4" d="M155.4,245.7c-1,0.1-2,0.2-2.9,0.3C153.5,245.9,154.4,245.8,155.4,245.7z"/>
		<path class="st4" d="M181.1,188.1c0.8-0.2,1.5-0.5,2.2-0.8C182.6,187.6,181.9,187.9,181.1,188.1L181.1,188.1z"/>
		<path class="st4" d="M151.2,246.1c-1.4,0.1-2.9,0.2-4.3,0.2C148.4,246.2,149.8,246.2,151.2,246.1z"/>
		<path class="st4" d="M82.2,107.7c0.1-0.7,0.1-1.3,0.2-2C82.3,106.4,82.3,107.1,82.2,107.7z"/>
		<path class="st4" d="M182.8,233.4c-0.2,0.2-0.3,0.3-0.5,0.5C182.5,233.7,182.7,233.5,182.8,233.4z"/>
		<path class="st4" d="M185.7,230.1c-0.1,0.2-0.3,0.3-0.4,0.5C185.4,230.5,185.5,230.3,185.7,230.1z"/>
		<path class="st4" d="M179.6,236.3c-0.1,0.1-0.3,0.2-0.4,0.3C179.4,236.5,179.5,236.4,179.6,236.3z"/>
		<path class="st4" d="M176.3,238.7c-0.1,0-0.1,0.1-0.2,0.1C176.2,238.7,176.2,238.7,176.3,238.7z"/>
		<path class="st4" d="M203.2,171.6c-0.8,1.1-1.5,2.2-2.4,3.2C201.6,173.8,202.4,172.7,203.2,171.6z"/>
		<path class="st4" d="M173.2,240.5c-0.4,0.2-0.9,0.4-1.3,0.7C172.3,240.9,172.7,240.7,173.2,240.5z"/>
		<path class="st4" d="M124.3,138.3C124.3,138.3,124.3,138.3,124.3,138.3c0.2-0.1,0.4-0.1,0.6-0.2
			C124.7,138.1,124.5,138.2,124.3,138.3z"/>
		<path class="st4" d="M82.3,123.6c-0.1-1.2-0.2-2.5-0.3-3.7C82.1,121.1,82.2,122.3,82.3,123.6z"/>
		<path class="st4" d="M137.8,135.9c-1.3,0-2.5,0.1-3.8,0.2c-0.3,0-0.6,0.1-0.9,0.1c-1.2,0.1-2.4,0.3-3.5,0.5
			c-0.8,0.2-1.6,0.4-2.4,0.6c-0.3,0.1-0.5,0.2-0.8,0.2c-0.5,0.2-1,0.3-1.5,0.5c-0.2,0.1-0.4,0.1-0.6,0.2
			c4.9,11.8,13.8,20.6,25.5,24.3l6.2-22.8C151.1,137.3,145,135.8,137.8,135.9z"/>
		<path class="st4" d="M82,118.7c0-0.8-0.1-1.6-0.1-2.4C81.9,117.1,81.9,117.9,82,118.7z"/>
		<path class="st4" d="M81.9,114.9c0-0.7,0-1.4,0-2.2C81.9,113.4,81.9,114.1,81.9,114.9z"/>
		<path class="st4" d="M81.9,111.2c0-0.7,0.1-1.4,0.1-2C82,109.9,82,110.6,81.9,111.2z"/>
		<path class="st4" d="M200.4,175.3c-0.8,1-1.6,1.9-2.5,2.7C198.8,177.2,199.6,176.3,200.4,175.3z"/>
		<path class="st4" d="M187,185.8c-0.7,0.4-1.5,0.7-2.3,1C185.5,186.5,186.3,186.2,187,185.8z"/>
		<path class="st4" d="M132.7,86.5C132.7,86.5,132.7,86.6,132.7,86.5c-0.2,0.1-0.2,0.2-0.3,0.2c-0.2,0.2-0.4,0.4-0.7,0.5
			C132.1,87,132.4,86.8,132.7,86.5z"/>
		<path class="st4" d="M197.5,178.5c-0.9,0.9-1.8,1.7-2.7,2.4C195.7,180.2,196.6,179.4,197.5,178.5z"/>
		<path class="st4" d="M189.1,184.7c0.7-0.4,1.4-0.8,2.1-1.3c-0.9,0.6-1.9,1.2-2.9,1.7C188.6,185,188.9,184.9,189.1,184.7z"/>
		<path class="st4" d="M137.8,135.9c7.1-0.1,13.2,1.4,18.2,3.9l6.2-22.6l17.4-0.2l4.9-17.9c-4-10.7-15-18.6-31.5-18.4
			c-1,0-1.9,0.1-2.8,0.2L135.1,136C136,136,136.9,135.9,137.8,135.9z"/>
		<path class="st4" d="M162.2,117.2l-6.2,22.6l-6.2,22.8c2.8,0.9,5.7,1.5,8.8,1.8l5.2-18.9l1.2-4.4L162.2,117.2z"/>
		<polygon class="st4" points="203.2,171.6 188,226.9 192,242.7 207.1,187.4 		"/>
		<g>
			<polygon class="st4" points="220.8,98.5 184.5,99 179.6,116.9 215.9,116.5 			"/>
			<path class="st4" d="M148.3,80.9c-1.2,0.1-2.4,0.3-3.5,0.5c-1.1,0.2-2.1,0.5-3.1,0.8c0,0-0.1,0-0.1,0c-0.3,0.1-0.5,0.2-0.7,0.2
				c-0.7,0.2-1.5,0.5-2.2,0.8c-0.2,0.1-0.5,0.2-0.7,0.3c-0.8,0.4-1.6,0.7-2.3,1.2c-0.1,0-0.1,0.1-0.2,0.1c-0.1,0.1-0.2,0.1-0.3,0.2
				c-0.2,0.1-0.5,0.3-0.7,0.4c-0.6,0.3-1.1,0.7-1.7,1.1c-0.3,0.2-0.6,0.5-1,0.8c-0.4,0.3-0.9,0.7-1.3,1.1c-0.1,0.1-0.1,0.1-0.2,0.2
				c-0.3,0.3-0.5,0.5-0.8,0.8c-0.4,0.4-0.8,0.8-1.2,1.2c-0.3,0.3-0.6,0.7-0.8,1c-0.3,0.4-0.7,0.9-1,1.3c-0.3,0.4-0.5,0.8-0.8,1.1
				c-0.3,0.5-0.6,0.9-0.9,1.4c-0.2,0.4-0.4,0.8-0.7,1.2c-0.3,0.5-0.5,1-0.7,1.5c-0.2,0.4-0.4,0.9-0.6,1.3c-0.2,0.5-0.4,1.1-0.6,1.6
				c-0.2,0.5-0.3,0.9-0.4,1.4c-1.8,6-2.3,13-1.4,20.6c0.4,3.3,1,6.5,1.9,9.6c0.6,1.9,1.2,3.8,2,5.6c0.2-0.1,0.4-0.1,0.6-0.2
				c0.5-0.2,1-0.3,1.5-0.5c0.3-0.1,0.5-0.2,0.8-0.2c0.8-0.2,1.6-0.4,2.4-0.6c1.1-0.2,2.3-0.4,3.5-0.5c0.3,0,0.6-0.1,0.9-0.1
				c0.3,0,0.7-0.1,1-0.1l15.1-55.3c-0.3,0-0.7,0-1,0.1C148.9,80.8,148.6,80.9,148.3,80.9z"/>
			<path class="st4" d="M171.5,163.7c7.7-1.6,13.3-5.1,17-9.6c0.8-1,1.6-2.1,2.2-3.2c0.9-1.6,1.6-3.4,2-5.1c0.1-0.6,0.3-1.2,0.4-1.8
				c0-0.2,0.1-0.4,0.1-0.6c0.1-0.8,0.2-1.5,0.2-2.3l-20.4,0l-8,0l-1.2,4.4l-5.2,18.9c1.5,0.1,3,0.2,4.6,0.2
				C166.2,164.5,169,164.2,171.5,163.7z"/>
			<polygon class="st4" points="207.1,187.4 192,242.7 218.2,242.4 233.3,187.1 			"/>
			<path class="st4" d="M200.8,174.8c-0.1,0.2-0.3,0.3-0.4,0.5c-0.8,1-1.6,1.9-2.5,2.7c-0.2,0.2-0.3,0.3-0.5,0.5
				c-0.9,0.9-1.8,1.7-2.7,2.4c-0.1,0.1-0.3,0.2-0.4,0.3c-0.9,0.7-1.9,1.4-2.9,2.1c-0.1,0-0.1,0.1-0.2,0.1c-0.7,0.4-1.4,0.9-2.1,1.3
				c-0.3,0.1-0.5,0.3-0.8,0.4c-0.4,0.2-0.9,0.4-1.3,0.7c-0.7,0.4-1.5,0.7-2.3,1c-0.5,0.2-0.9,0.4-1.4,0.5c-0.7,0.3-1.5,0.5-2.2,0.8
				l0,0c-0.1,0-0.2,0.1-0.3,0.1c-0.1,0-0.3,0.1-0.4,0.1c-0.3,0.1-0.5,0.2-0.8,0.2c-1.3,0.4-2.6,0.7-4,1c-1.3,0.3-2.6,0.5-3.9,0.6
				c-0.4,0.1-0.8,0.1-1.2,0.1c-1,0.1-2,0.2-3,0.3c-0.4,0-0.8,0.1-1.3,0.1c0.2,0,0.3,0,0.5,0l-1.6,5.7L151.7,246c0.2,0,0.5,0,0.7-0.1
				c1-0.1,2-0.2,2.9-0.3c0.4,0,0.8-0.1,1.2-0.1c1.3-0.2,2.6-0.4,3.9-0.6c1.4-0.3,2.7-0.6,4-1c0.4-0.1,0.8-0.3,1.2-0.4
				c0.9-0.3,1.7-0.6,2.6-0.9c0.5-0.2,0.9-0.4,1.4-0.5c0.8-0.3,1.5-0.6,2.3-1c0.4-0.2,0.9-0.4,1.3-0.7c0.3-0.1,0.5-0.3,0.8-0.5
				c0.7-0.4,1.4-0.8,2.1-1.2c0.1,0,0.1-0.1,0.2-0.1c1-0.6,2-1.4,2.9-2.1c0.1-0.1,0.3-0.2,0.4-0.3c0.9-0.8,1.8-1.6,2.7-2.4
				c0.2-0.2,0.3-0.3,0.5-0.5c0.9-0.9,1.7-1.8,2.5-2.7c0.1-0.2,0.3-0.3,0.4-0.5c0.8-1,1.6-2.1,2.4-3.2l15.1-55.3
				C202.4,172.7,201.6,173.8,200.8,174.8z"/>
		</g>
		<path class="st4" d="M166.3,190.8c-1.4,0.1-2.9,0.2-4.3,0.2c-3.6,0-7.1-0.1-10.6-0.4c-0.8-0.1-1.6-0.2-2.3-0.2
			c-16-1.9-29.8-7.8-40.8-17.1c-14.5-12.4-23.7-29.6-26-49.6c-0.1-1.2-0.2-2.5-0.3-3.7c0-0.4,0-0.8-0.1-1.2c0-0.8-0.1-1.6-0.1-2.4
			c0-0.5,0-0.9,0-1.4c0-0.7,0-1.4,0-2.2c0-0.5,0-1,0.1-1.5c0-0.7,0.1-1.4,0.1-2c0-0.5,0.1-1,0.1-1.5c0.1-0.7,0.1-1.3,0.2-2
			c0.1-0.5,0.1-1,0.2-1.5c0.1-0.6,0.2-1.3,0.3-1.9c0.1-0.5,0.2-0.9,0.3-1.4c0.1-0.6,0.3-1.3,0.4-1.9c0.1-0.4,0.2-0.9,0.3-1.3
			c0-0.1,0.1-0.3,0.1-0.4L69,152.6c-2.2,8.1-2.8,17-1.8,26.3c2.3,20.1,11.5,37.3,26,49.6c13.8,11.6,32.1,18,53.7,17.7
			c1.5,0,2.9-0.1,4.3-0.2c0.2,0,0.3,0,0.5,0l13.6-49.6l1.6-5.7C166.7,190.8,166.5,190.7,166.3,190.8z"/>
		<path class="st4" d="M225.2,116.4l-9.3,0.1l-36.3,0.5l-17.4,0.2l2.8,23.9l8,0l20.4,0c0,0.8-0.1,1.5-0.2,2.3c0,0.2-0.1,0.4-0.1,0.6
			c-0.1,0.6-0.2,1.2-0.4,1.8c-0.4,1.8-1.1,3.5-2,5.1c-0.6,1.1-1.3,2.2-2.2,3.2c-3.6,4.5-9.3,8.1-17,9.6c-2.5,0.5-5.3,0.8-8.3,0.9
			c-1.6,0-3.1-0.1-4.6-0.2c-3.1-0.3-6-0.9-8.8-1.8c-11.7-3.7-20.6-12.5-25.5-24.3c0,0,0,0,0,0c-0.8-1.8-1.4-3.7-2-5.6
			c-0.9-3.1-1.6-6.3-1.9-9.6c-0.9-7.6-0.4-14.6,1.4-20.6c0-0.1,0.1-0.3,0.1-0.4c0.1-0.2,0.1-0.3,0.2-0.5c0.1-0.2,0.1-0.3,0.2-0.5
			c0.2-0.5,0.4-1.1,0.6-1.6c0.1-0.2,0.1-0.4,0.2-0.6c0.1-0.2,0.2-0.4,0.3-0.6c0,0,0-0.1,0.1-0.1c0.2-0.5,0.5-1,0.7-1.5
			c0.1-0.2,0.2-0.4,0.3-0.5c0.1-0.1,0.1-0.3,0.2-0.4c0.1-0.1,0.1-0.2,0.2-0.3c0.3-0.5,0.6-0.9,0.9-1.4c0.1-0.2,0.2-0.4,0.4-0.6
			c0.1-0.2,0.2-0.3,0.4-0.5c0,0,0,0,0,0c0.3-0.5,0.7-0.9,1-1.3c0.2-0.2,0.3-0.4,0.5-0.6c0.1-0.1,0.1-0.2,0.2-0.3
			c0-0.1,0.1-0.1,0.2-0.2c0.4-0.4,0.8-0.8,1.2-1.2c0.2-0.2,0.3-0.4,0.5-0.5c0.2-0.1,0.3-0.3,0.5-0.4c0.4-0.4,0.9-0.7,1.3-1.1
			c0.2-0.2,0.4-0.4,0.7-0.5c0.1-0.1,0.1-0.1,0.2-0.2c0,0,0.1,0,0.1-0.1c0.5-0.4,1.1-0.7,1.7-1.1c0.2-0.1,0.4-0.3,0.6-0.4
			c0.2-0.1,0.4-0.2,0.6-0.3c0.8-0.4,1.5-0.8,2.3-1.2c0,0,0.1,0,0.1-0.1c0,0,0.1,0,0.1-0.1c0.2-0.1,0.3-0.1,0.5-0.2
			c0.7-0.3,1.4-0.5,2.2-0.8c0.1,0,0.1,0,0.2-0.1c0.2-0.1,0.5-0.1,0.7-0.2c1-0.3,2-0.6,3.1-0.8c1.1-0.2,2.3-0.4,3.5-0.5
			c0.3,0,0.6-0.1,1-0.1c0.3,0,0.7,0,1-0.1c0.9-0.1,1.8-0.1,2.8-0.2c16.5-0.2,27.6,7.8,31.5,18.4l36.3-0.5
			c-8-27.6-33.3-45.3-72.2-44.8c-6.3,0.1-12.2,0.7-17.7,1.8c-13.4,2.7-24.1,8.4-32.1,16.3C91.7,79,86.7,87.7,84,97.7
			c-0.1,0.4-0.2,0.9-0.3,1.3c-0.2,0.6-0.3,1.3-0.4,1.9c-0.1,0.5-0.2,0.9-0.3,1.4c-0.1,0.6-0.2,1.3-0.3,1.9c-0.1,0.5-0.1,1-0.2,1.5
			c-0.1,0.7-0.2,1.3-0.2,2c0,0.5-0.1,1-0.1,1.5c-0.1,0.7-0.1,1.4-0.1,2c0,0.5-0.1,1-0.1,1.5c0,0.7,0,1.4,0,2.2c0,0.5,0,0.9,0,1.4
			c0,0.8,0.1,1.6,0.1,2.4c0,0.4,0,0.8,0.1,1.2c0.1,1.2,0.2,2.4,0.3,3.7c2.3,20.1,11.5,37.3,26,49.6c11,9.2,24.8,15.1,40.8,17.1
			c0.8,0.1,1.6,0.2,2.3,0.2c3.4,0.3,6.9,0.5,10.6,0.4c1.5,0,2.9-0.1,4.3-0.2c0.4,0,0.8-0.1,1.3-0.1c1-0.1,2-0.2,3-0.3
			c0.4,0,0.8-0.1,1.2-0.1c1.3-0.2,2.6-0.4,3.9-0.6c1.4-0.3,2.7-0.6,4-1c0.3-0.1,0.5-0.2,0.8-0.2c0.1,0,0.3-0.1,0.4-0.1
			c0.1,0,0.2-0.1,0.3-0.1c0.8-0.2,1.5-0.5,2.2-0.8c0.5-0.2,0.9-0.4,1.4-0.5c0.8-0.3,1.5-0.7,2.3-1c0.4-0.2,0.9-0.4,1.3-0.7
			c1-0.5,2-1.1,2.9-1.7c0.1,0,0.1-0.1,0.2-0.1c1-0.6,2-1.3,2.9-2.1c0.1-0.1,0.3-0.2,0.4-0.3c0.9-0.8,1.8-1.6,2.7-2.4
			c0.2-0.2,0.3-0.3,0.5-0.5c0.9-0.9,1.7-1.8,2.5-2.7c0.1-0.2,0.3-0.3,0.4-0.5c0.8-1,1.6-2.1,2.4-3.2l3.9,15.8l26.2-0.3L225.2,116.4z
			"/>
	</g>
</g>
</svg>
