<svg id="Layer_1" data-name="Layer 1" xmlns="http://www.w3.org/2000/svg" viewBox="0 0 26.57 26.57"><defs><style>.cls-1{fill:#231815;}</style></defs><title>logo</title><path class="cls-1" d="M13.28,0A13.29,13.29,0,1,0,26.57,13.29,13.3,13.3,0,0,0,13.28,0Zm3.08,2L14.59,5.42c-.5,1-.95,1.84-1.31,2.7h0c-.41-.92-.8-1.71-1.3-2.7L10.21,2a11.47,11.47,0,0,1,6.15,0Zm-4,22.86a11.44,11.44,0,0,1-5.68-2l4.45-6.64,1.23,1.41ZM14,22.63h0v-5l1.24-1.44L19.79,23a11.73,11.73,0,0,1-5.78,2ZM1.62,13.29a11.69,11.69,0,0,1,7-10.69l3.7,6.74v6.52h0c-.35-.5-.7-1-1-1.4l-4-4.9H5.15L9.88,15.1,5.34,21.81A11.66,11.66,0,0,1,1.62,13.29Zm19.47,8.64L16.46,15.1l4.73-5.54H19.1l-4,4.9c-.33.43-.68.9-1,1.4H14V9.56h0V9.32l3.93-6.73a11.64,11.64,0,0,1,3.15,19.34Z"/></svg>